<mxfile host="app.diagrams.net" modified="2020-11-05T05:17:47.812Z" agent="5.0 (X11; Linux x86_64) AppleWebKit/537.36 (KHTML, like Gecko) Chrome/86.0.4240.111 Safari/537.36" etag="D4Rqf6snhxorXLTBmKXI" version="13.9.1" type="github" pages="7">
  <diagram id="piDafpqhtRUU5qUU-vj8" name="Login">
    <mxGraphModel dx="1413" dy="784" grid="1" gridSize="10" guides="1" tooltips="1" connect="1" arrows="1" fold="1" page="1" pageScale="1" pageWidth="827" pageHeight="1169" math="0" shadow="0">
      <root>
        <mxCell id="0" />
        <mxCell id="1" parent="0" />
        <mxCell id="8962rQQDY3VNNf6We3Pp-1" value="" style="strokeWidth=1;shadow=0;dashed=0;align=center;html=1;shape=mxgraph.mockup.containers.browserWindow;rSize=0;strokeColor2=#008cff;strokeColor3=#c4c4c4;mainText=,;recursiveResize=0;strokeColor=#FFFFFF;fontColor=#FFFFFF;" parent="1" vertex="1">
          <mxGeometry x="80" y="90" width="1110" height="620" as="geometry" />
        </mxCell>
        <mxCell id="8962rQQDY3VNNf6We3Pp-2" value="Page 1" style="strokeWidth=1;shadow=0;dashed=0;align=center;html=1;shape=mxgraph.mockup.containers.anchor;fontSize=17;fontColor=#666666;align=left;" parent="8962rQQDY3VNNf6We3Pp-1" vertex="1">
          <mxGeometry x="60" y="12" width="110" height="26" as="geometry" />
        </mxCell>
        <mxCell id="8962rQQDY3VNNf6We3Pp-3" value="https://www.example.com/login" style="strokeWidth=1;shadow=0;dashed=0;align=center;html=1;shape=mxgraph.mockup.containers.anchor;rSize=0;fontSize=17;fontColor=#666666;align=left;" parent="8962rQQDY3VNNf6We3Pp-1" vertex="1">
          <mxGeometry x="131" y="60" width="919" height="26" as="geometry" />
        </mxCell>
        <mxCell id="2ucWgahXYKP3iNO1BxsZ-1" value="&lt;font style=&quot;font-size: 31px&quot;&gt;Spirit of Technology&lt;/font&gt;" style="text;html=1;strokeColor=none;fillColor=none;align=center;verticalAlign=middle;whiteSpace=wrap;rounded=0;" parent="8962rQQDY3VNNf6We3Pp-1" vertex="1">
          <mxGeometry x="487.5" y="170" width="135" height="20" as="geometry" />
        </mxCell>
        <mxCell id="syWyWxpKt7MfaaiBoiAH-1" value="" style="strokeWidth=1;shadow=0;dashed=0;align=center;html=1;shape=mxgraph.mockup.forms.rrect;rSize=0;strokeColor=#999999;fillColor=#ffffff;" parent="8962rQQDY3VNNf6We3Pp-1" vertex="1">
          <mxGeometry x="455" y="230" width="200" height="300" as="geometry" />
        </mxCell>
        <mxCell id="syWyWxpKt7MfaaiBoiAH-2" value="Sign In" style="strokeWidth=1;shadow=0;dashed=0;align=center;html=1;shape=mxgraph.mockup.forms.anchor;fontSize=12;fontColor=#666666;align=left;resizeWidth=1;spacingLeft=0;" parent="syWyWxpKt7MfaaiBoiAH-1" vertex="1">
          <mxGeometry width="100" height="20" relative="1" as="geometry">
            <mxPoint x="10" y="10" as="offset" />
          </mxGeometry>
        </mxCell>
        <mxCell id="syWyWxpKt7MfaaiBoiAH-3" value="" style="shape=line;strokeColor=#ddeeff;strokeWidth=2;html=1;resizeWidth=1;" parent="syWyWxpKt7MfaaiBoiAH-1" vertex="1">
          <mxGeometry width="180" height="10" relative="1" as="geometry">
            <mxPoint x="10" y="30" as="offset" />
          </mxGeometry>
        </mxCell>
        <mxCell id="syWyWxpKt7MfaaiBoiAH-4" value="Email:" style="strokeWidth=1;shadow=0;dashed=0;align=center;html=1;shape=mxgraph.mockup.forms.anchor;fontSize=12;fontColor=#666666;align=left;resizeWidth=1;spacingLeft=0;" parent="syWyWxpKt7MfaaiBoiAH-1" vertex="1">
          <mxGeometry width="100" height="20" relative="1" as="geometry">
            <mxPoint x="10" y="40" as="offset" />
          </mxGeometry>
        </mxCell>
        <mxCell id="syWyWxpKt7MfaaiBoiAH-5" value="johndoe" style="strokeWidth=1;shadow=0;dashed=0;align=center;html=1;shape=mxgraph.mockup.forms.rrect;rSize=0;strokeColor=#999999;fontColor=#666666;align=left;spacingLeft=5;resizeWidth=1;" parent="syWyWxpKt7MfaaiBoiAH-1" vertex="1">
          <mxGeometry width="150" height="25" relative="1" as="geometry">
            <mxPoint x="10" y="60" as="offset" />
          </mxGeometry>
        </mxCell>
        <mxCell id="syWyWxpKt7MfaaiBoiAH-6" value="Password:" style="strokeWidth=1;shadow=0;dashed=0;align=center;html=1;shape=mxgraph.mockup.forms.anchor;fontSize=12;fontColor=#666666;align=left;resizeWidth=1;spacingLeft=0;" parent="syWyWxpKt7MfaaiBoiAH-1" vertex="1">
          <mxGeometry width="100" height="20" relative="1" as="geometry">
            <mxPoint x="10" y="95" as="offset" />
          </mxGeometry>
        </mxCell>
        <mxCell id="syWyWxpKt7MfaaiBoiAH-7" value="********" style="strokeWidth=1;shadow=0;dashed=0;align=center;html=1;shape=mxgraph.mockup.forms.rrect;rSize=0;strokeColor=#999999;fontColor=#666666;align=left;spacingLeft=5;resizeWidth=1;" parent="syWyWxpKt7MfaaiBoiAH-1" vertex="1">
          <mxGeometry width="150" height="25" relative="1" as="geometry">
            <mxPoint x="10" y="115" as="offset" />
          </mxGeometry>
        </mxCell>
        <mxCell id="syWyWxpKt7MfaaiBoiAH-8" value="SIGN IN" style="strokeWidth=1;shadow=0;dashed=0;align=center;html=1;shape=mxgraph.mockup.forms.rrect;rSize=5;strokeColor=none;fontColor=#ffffff;fillColor=#66bbff;fontSize=16;fontStyle=1;" parent="syWyWxpKt7MfaaiBoiAH-1" vertex="1">
          <mxGeometry y="1" width="80" height="30" relative="1" as="geometry">
            <mxPoint x="20" y="-150" as="offset" />
          </mxGeometry>
        </mxCell>
        <mxCell id="syWyWxpKt7MfaaiBoiAH-9" value="Forgot Password?" style="strokeWidth=1;shadow=0;dashed=0;align=center;html=1;shape=mxgraph.mockup.forms.anchor;fontSize=12;fontColor=#9999ff;align=left;spacingLeft=0;fontStyle=4;resizeWidth=1;" parent="syWyWxpKt7MfaaiBoiAH-1" vertex="1">
          <mxGeometry y="1" width="150" height="20" relative="1" as="geometry">
            <mxPoint x="10" y="-110" as="offset" />
          </mxGeometry>
        </mxCell>
        <mxCell id="syWyWxpKt7MfaaiBoiAH-10" value="" style="shape=line;strokeColor=#ddeeff;strokeWidth=2;html=1;resizeWidth=1;" parent="syWyWxpKt7MfaaiBoiAH-1" vertex="1">
          <mxGeometry y="1" width="180" height="10" relative="1" as="geometry">
            <mxPoint x="10" y="-90" as="offset" />
          </mxGeometry>
        </mxCell>
        <mxCell id="syWyWxpKt7MfaaiBoiAH-11" value="New User" style="strokeWidth=1;shadow=0;dashed=0;align=center;html=1;shape=mxgraph.mockup.forms.anchor;fontSize=12;fontColor=#666666;align=left;spacingLeft=0;resizeWidth=1;" parent="syWyWxpKt7MfaaiBoiAH-1" vertex="1">
          <mxGeometry y="1" width="150" height="20" relative="1" as="geometry">
            <mxPoint x="10" y="-70" as="offset" />
          </mxGeometry>
        </mxCell>
        <mxCell id="syWyWxpKt7MfaaiBoiAH-12" value="SIGN UP" style="strokeWidth=1;shadow=0;dashed=0;align=center;html=1;shape=mxgraph.mockup.forms.rrect;rSize=5;strokeColor=none;fontColor=#ffffff;fillColor=#66bbff;fontSize=16;fontStyle=1;" parent="syWyWxpKt7MfaaiBoiAH-1" vertex="1">
          <mxGeometry y="1" width="80" height="30" relative="1" as="geometry">
            <mxPoint x="20" y="-50" as="offset" />
          </mxGeometry>
        </mxCell>
      </root>
    </mxGraphModel>
  </diagram>
  <diagram name="Admin Overview" id="OGpKFEBWtE3BO4bA9Eq0">
    <mxGraphModel dx="1413" dy="784" grid="1" gridSize="10" guides="1" tooltips="1" connect="1" arrows="1" fold="1" page="1" pageScale="1" pageWidth="827" pageHeight="1169" math="0" shadow="0">
      <root>
        <mxCell id="qp07S6dzb6UUmecFR4FX-0" />
        <mxCell id="qp07S6dzb6UUmecFR4FX-1" parent="qp07S6dzb6UUmecFR4FX-0" />
        <mxCell id="qp07S6dzb6UUmecFR4FX-2" value="" style="strokeWidth=1;shadow=0;dashed=0;align=center;html=1;shape=mxgraph.mockup.containers.browserWindow;rSize=0;strokeColor2=#008cff;strokeColor3=#c4c4c4;mainText=,;recursiveResize=0;strokeColor=#FFFFFF;fontColor=#FFFFFF;" parent="qp07S6dzb6UUmecFR4FX-1" vertex="1">
          <mxGeometry x="80" y="90" width="1110" height="620" as="geometry" />
        </mxCell>
        <mxCell id="qp07S6dzb6UUmecFR4FX-3" value="Page 1" style="strokeWidth=1;shadow=0;dashed=0;align=center;html=1;shape=mxgraph.mockup.containers.anchor;fontSize=17;fontColor=#666666;align=left;" parent="qp07S6dzb6UUmecFR4FX-2" vertex="1">
          <mxGeometry x="60" y="12" width="110" height="26" as="geometry" />
        </mxCell>
        <mxCell id="qp07S6dzb6UUmecFR4FX-4" value="https://www.example.com/login" style="strokeWidth=1;shadow=0;dashed=0;align=center;html=1;shape=mxgraph.mockup.containers.anchor;rSize=0;fontSize=17;fontColor=#666666;align=left;" parent="qp07S6dzb6UUmecFR4FX-2" vertex="1">
          <mxGeometry x="131" y="60" width="919" height="26" as="geometry" />
        </mxCell>
      </root>
    </mxGraphModel>
  </diagram>
  <diagram name="Admin Sessions" id="nqmfvWK0wqsIqLHVyM6m">
    <mxGraphModel dx="-241" dy="784" grid="1" gridSize="10" guides="1" tooltips="1" connect="1" arrows="1" fold="1" page="1" pageScale="1" pageWidth="827" pageHeight="1169" math="0" shadow="0">
      <root>
        <mxCell id="IySlJ4m32YIS-ADElgs7-0" />
        <mxCell id="IySlJ4m32YIS-ADElgs7-1" parent="IySlJ4m32YIS-ADElgs7-0" />
        <mxCell id="IySlJ4m32YIS-ADElgs7-2" value="" style="strokeWidth=1;shadow=0;dashed=0;align=center;html=1;shape=mxgraph.mockup.containers.browserWindow;rSize=0;strokeColor2=#008cff;strokeColor3=#c4c4c4;mainText=,;recursiveResize=0;strokeColor=#FFFFFF;fontColor=#FFFFFF;" parent="IySlJ4m32YIS-ADElgs7-1" vertex="1">
          <mxGeometry x="1930" y="180" width="1110" height="1050" as="geometry" />
        </mxCell>
        <mxCell id="IySlJ4m32YIS-ADElgs7-3" value="Page 1" style="strokeWidth=1;shadow=0;dashed=0;align=center;html=1;shape=mxgraph.mockup.containers.anchor;fontSize=17;fontColor=#666666;align=left;" parent="IySlJ4m32YIS-ADElgs7-2" vertex="1">
          <mxGeometry x="60" y="12" width="110" height="26" as="geometry" />
        </mxCell>
        <mxCell id="IySlJ4m32YIS-ADElgs7-4" value="https://www.example.com/admin/session" style="strokeWidth=1;shadow=0;dashed=0;align=center;html=1;shape=mxgraph.mockup.containers.anchor;rSize=0;fontSize=17;fontColor=#666666;align=left;" parent="IySlJ4m32YIS-ADElgs7-2" vertex="1">
          <mxGeometry x="131" y="60" width="799" height="26" as="geometry" />
        </mxCell>
        <mxCell id="IySlJ4m32YIS-ADElgs7-5" value="&lt;font color=&quot;#000000&quot;&gt;&lt;span style=&quot;font-size: 18px&quot;&gt;Upcoming Sessions&lt;/span&gt;&lt;/font&gt;" style="text;html=1;strokeColor=none;fillColor=none;align=left;verticalAlign=middle;whiteSpace=wrap;rounded=0;labelBackgroundColor=none;sketch=0;fontColor=#FFFFFF;" parent="IySlJ4m32YIS-ADElgs7-2" vertex="1">
          <mxGeometry x="70" y="390" width="210" height="50" as="geometry" />
        </mxCell>
        <mxCell id="IySlJ4m32YIS-ADElgs7-8" value="&lt;font color=&quot;#000000&quot;&gt;Start Date&lt;/font&gt;" style="text;html=1;strokeColor=none;fillColor=none;align=center;verticalAlign=middle;whiteSpace=wrap;rounded=0;labelBackgroundColor=none;sketch=0;fontColor=#FFFFFF;" parent="IySlJ4m32YIS-ADElgs7-2" vertex="1">
          <mxGeometry x="640" y="440" width="80" height="20" as="geometry" />
        </mxCell>
        <mxCell id="IySlJ4m32YIS-ADElgs7-9" value="&lt;font color=&quot;#000000&quot;&gt;End Date&lt;/font&gt;" style="text;html=1;strokeColor=none;fillColor=none;align=center;verticalAlign=middle;whiteSpace=wrap;rounded=0;labelBackgroundColor=none;sketch=0;fontColor=#FFFFFF;" parent="IySlJ4m32YIS-ADElgs7-2" vertex="1">
          <mxGeometry x="780" y="440" width="80" height="20" as="geometry" />
        </mxCell>
        <mxCell id="IySlJ4m32YIS-ADElgs7-12" value="&lt;font color=&quot;#000000&quot;&gt;(+) New Session&lt;/font&gt;" style="rounded=0;whiteSpace=wrap;html=1;labelBackgroundColor=none;sketch=0;fillColor=none;fontColor=#FFFFFF;align=center;" parent="IySlJ4m32YIS-ADElgs7-2" vertex="1">
          <mxGeometry x="70" y="620" width="940" height="40" as="geometry" />
        </mxCell>
        <mxCell id="IySlJ4m32YIS-ADElgs7-13" value="Newest" style="strokeWidth=1;shadow=0;dashed=0;align=center;html=1;shape=mxgraph.mockup.forms.comboBox;strokeColor=#999999;fillColor=#ddeeff;align=left;fillColor2=#aaddff;mainText=;fontColor=#666666;fontSize=17;spacingLeft=3;" parent="IySlJ4m32YIS-ADElgs7-2" vertex="1">
          <mxGeometry x="910" y="440" width="100" height="20" as="geometry" />
        </mxCell>
        <mxCell id="IySlJ4m32YIS-ADElgs7-14" value="&lt;font color=&quot;#000000&quot;&gt;Session Name&lt;/font&gt;" style="text;html=1;strokeColor=none;fillColor=none;align=center;verticalAlign=middle;whiteSpace=wrap;rounded=0;labelBackgroundColor=none;sketch=0;fontColor=#FFFFFF;" parent="IySlJ4m32YIS-ADElgs7-2" vertex="1">
          <mxGeometry x="150" y="440" width="100" height="20" as="geometry" />
        </mxCell>
        <mxCell id="IySlJ4m32YIS-ADElgs7-15" value="" style="rounded=0;whiteSpace=wrap;html=1;labelBackgroundColor=none;sketch=0;fillColor=none;fontColor=#FFFFFF;align=left;" parent="IySlJ4m32YIS-ADElgs7-2" vertex="1">
          <mxGeometry x="70" y="470" width="940" height="40" as="geometry" />
        </mxCell>
        <mxCell id="IySlJ4m32YIS-ADElgs7-16" value="&lt;font color=&quot;#000000&quot;&gt;Spirit of Technology Winter 2022&lt;/font&gt;" style="text;html=1;strokeColor=none;fillColor=none;align=left;verticalAlign=middle;whiteSpace=wrap;rounded=0;labelBackgroundColor=none;sketch=0;fontColor=#FFFFFF;" parent="IySlJ4m32YIS-ADElgs7-2" vertex="1">
          <mxGeometry x="125" y="480" width="225" height="20" as="geometry" />
        </mxCell>
        <mxCell id="IySlJ4m32YIS-ADElgs7-17" value="" style="rounded=0;whiteSpace=wrap;html=1;labelBackgroundColor=none;sketch=0;fillColor=none;fontColor=#FFFFFF;align=left;" parent="IySlJ4m32YIS-ADElgs7-2" vertex="1">
          <mxGeometry x="70" y="520" width="940" height="40" as="geometry" />
        </mxCell>
        <mxCell id="IySlJ4m32YIS-ADElgs7-18" value="" style="rounded=0;whiteSpace=wrap;html=1;labelBackgroundColor=none;sketch=0;fillColor=none;fontColor=#FFFFFF;align=left;" parent="IySlJ4m32YIS-ADElgs7-2" vertex="1">
          <mxGeometry x="70" y="570" width="940" height="40" as="geometry" />
        </mxCell>
        <mxCell id="IySlJ4m32YIS-ADElgs7-21" value="&lt;font color=&quot;#000000&quot;&gt;Spirit of Technology Winter 2021&lt;/font&gt;" style="text;html=1;strokeColor=none;fillColor=none;align=left;verticalAlign=middle;whiteSpace=wrap;rounded=0;labelBackgroundColor=none;sketch=0;fontColor=#FFFFFF;" parent="IySlJ4m32YIS-ADElgs7-2" vertex="1">
          <mxGeometry x="125" y="530" width="195" height="20" as="geometry" />
        </mxCell>
        <mxCell id="IySlJ4m32YIS-ADElgs7-22" value="&lt;font color=&quot;#000000&quot;&gt;Spirit of Technology Fall 2021&lt;/font&gt;" style="text;html=1;strokeColor=none;fillColor=none;align=left;verticalAlign=middle;whiteSpace=wrap;rounded=0;labelBackgroundColor=none;sketch=0;fontColor=#FFFFFF;" parent="IySlJ4m32YIS-ADElgs7-2" vertex="1">
          <mxGeometry x="125" y="580" width="195" height="20" as="geometry" />
        </mxCell>
        <mxCell id="LQp2LyBrNJa_KlbkAdrr-2" value="&lt;font style=&quot;font-size: 18px&quot;&gt;Current Sessions&lt;/font&gt;" style="text;html=1;strokeColor=none;fillColor=none;align=left;verticalAlign=middle;whiteSpace=wrap;rounded=0;" parent="IySlJ4m32YIS-ADElgs7-2" vertex="1">
          <mxGeometry x="70" y="220" width="170" height="20" as="geometry" />
        </mxCell>
        <mxCell id="LQp2LyBrNJa_KlbkAdrr-3" value="" style="rounded=0;whiteSpace=wrap;html=1;labelBackgroundColor=none;sketch=0;fillColor=none;fontColor=#FFFFFF;align=left;" parent="IySlJ4m32YIS-ADElgs7-2" vertex="1">
          <mxGeometry x="70" y="280" width="940" height="40" as="geometry" />
        </mxCell>
        <mxCell id="LQp2LyBrNJa_KlbkAdrr-4" value="&lt;font color=&quot;#000000&quot;&gt;Spirit of Technology Winter 2020&lt;/font&gt;" style="text;html=1;strokeColor=none;fillColor=none;align=left;verticalAlign=middle;whiteSpace=wrap;rounded=0;labelBackgroundColor=none;sketch=0;fontColor=#FFFFFF;" parent="IySlJ4m32YIS-ADElgs7-2" vertex="1">
          <mxGeometry x="125" y="290" width="195" height="20" as="geometry" />
        </mxCell>
        <mxCell id="LQp2LyBrNJa_KlbkAdrr-5" value="&lt;font color=&quot;#000000&quot;&gt;09/05/2020&lt;/font&gt;" style="text;html=1;strokeColor=none;fillColor=none;align=center;verticalAlign=middle;whiteSpace=wrap;rounded=0;labelBackgroundColor=none;sketch=0;fontColor=#FFFFFF;" parent="IySlJ4m32YIS-ADElgs7-2" vertex="1">
          <mxGeometry x="660" y="290" width="40" height="20" as="geometry" />
        </mxCell>
        <mxCell id="LQp2LyBrNJa_KlbkAdrr-6" value="&lt;font color=&quot;#000000&quot;&gt;01/12/2020&lt;/font&gt;" style="text;html=1;strokeColor=none;fillColor=none;align=center;verticalAlign=middle;whiteSpace=wrap;rounded=0;labelBackgroundColor=none;sketch=0;fontColor=#FFFFFF;" parent="IySlJ4m32YIS-ADElgs7-2" vertex="1">
          <mxGeometry x="800" y="290" width="40" height="20" as="geometry" />
        </mxCell>
        <mxCell id="LQp2LyBrNJa_KlbkAdrr-7" value="&lt;font color=&quot;#000000&quot;&gt;Start Date&lt;/font&gt;" style="text;html=1;strokeColor=none;fillColor=none;align=center;verticalAlign=middle;whiteSpace=wrap;rounded=0;labelBackgroundColor=none;sketch=0;fontColor=#FFFFFF;" parent="IySlJ4m32YIS-ADElgs7-2" vertex="1">
          <mxGeometry x="640" y="250" width="80" height="20" as="geometry" />
        </mxCell>
        <mxCell id="LQp2LyBrNJa_KlbkAdrr-8" value="&lt;font color=&quot;#000000&quot;&gt;End Date&lt;/font&gt;" style="text;html=1;strokeColor=none;fillColor=none;align=center;verticalAlign=middle;whiteSpace=wrap;rounded=0;labelBackgroundColor=none;sketch=0;fontColor=#FFFFFF;" parent="IySlJ4m32YIS-ADElgs7-2" vertex="1">
          <mxGeometry x="780" y="250" width="80" height="20" as="geometry" />
        </mxCell>
        <mxCell id="LQp2LyBrNJa_KlbkAdrr-9" value="&lt;font color=&quot;#000000&quot;&gt;Session Name&lt;/font&gt;" style="text;html=1;strokeColor=none;fillColor=none;align=center;verticalAlign=middle;whiteSpace=wrap;rounded=0;labelBackgroundColor=none;sketch=0;fontColor=#FFFFFF;" parent="IySlJ4m32YIS-ADElgs7-2" vertex="1">
          <mxGeometry x="150" y="250" width="100" height="20" as="geometry" />
        </mxCell>
        <mxCell id="RFC7zmQjAQgVpyRMsvdb-0" value="Enrolment" style="text;html=1;strokeColor=none;fillColor=none;align=center;verticalAlign=middle;whiteSpace=wrap;rounded=0;" vertex="1" parent="IySlJ4m32YIS-ADElgs7-2">
          <mxGeometry x="535" y="250" width="40" height="20" as="geometry" />
        </mxCell>
        <mxCell id="RFC7zmQjAQgVpyRMsvdb-1" value="375" style="text;html=1;strokeColor=none;fillColor=none;align=center;verticalAlign=middle;whiteSpace=wrap;rounded=0;" vertex="1" parent="IySlJ4m32YIS-ADElgs7-2">
          <mxGeometry x="535" y="290" width="40" height="20" as="geometry" />
        </mxCell>
        <mxCell id="RFC7zmQjAQgVpyRMsvdb-2" value="Enrolment" style="text;html=1;strokeColor=none;fillColor=none;align=center;verticalAlign=middle;whiteSpace=wrap;rounded=0;" vertex="1" parent="IySlJ4m32YIS-ADElgs7-2">
          <mxGeometry x="535" y="440" width="40" height="20" as="geometry" />
        </mxCell>
        <mxCell id="RFC7zmQjAQgVpyRMsvdb-3" value="--" style="text;html=1;strokeColor=none;fillColor=none;align=center;verticalAlign=middle;whiteSpace=wrap;rounded=0;" vertex="1" parent="IySlJ4m32YIS-ADElgs7-2">
          <mxGeometry x="535" y="480" width="40" height="20" as="geometry" />
        </mxCell>
        <mxCell id="RFC7zmQjAQgVpyRMsvdb-6" value="26" style="text;html=1;strokeColor=none;fillColor=none;align=center;verticalAlign=middle;whiteSpace=wrap;rounded=0;" vertex="1" parent="IySlJ4m32YIS-ADElgs7-2">
          <mxGeometry x="535" y="580" width="40" height="20" as="geometry" />
        </mxCell>
        <mxCell id="RFC7zmQjAQgVpyRMsvdb-9" value="--" style="text;html=1;strokeColor=none;fillColor=none;align=center;verticalAlign=middle;whiteSpace=wrap;rounded=0;" vertex="1" parent="IySlJ4m32YIS-ADElgs7-2">
          <mxGeometry x="535" y="530" width="40" height="20" as="geometry" />
        </mxCell>
        <mxCell id="OGUiCds7fTodX2qglqrH-0" value="&lt;font color=&quot;#000000&quot;&gt;&lt;span style=&quot;font-size: 18px&quot;&gt;Past Sessions&lt;/span&gt;&lt;/font&gt;" style="text;html=1;strokeColor=none;fillColor=none;align=left;verticalAlign=middle;whiteSpace=wrap;rounded=0;labelBackgroundColor=none;sketch=0;fontColor=#FFFFFF;" vertex="1" parent="IySlJ4m32YIS-ADElgs7-2">
          <mxGeometry x="70" y="690" width="210" height="50" as="geometry" />
        </mxCell>
        <mxCell id="OGUiCds7fTodX2qglqrH-1" value="&lt;font color=&quot;#000000&quot;&gt;Start Date&lt;/font&gt;" style="text;html=1;strokeColor=none;fillColor=none;align=center;verticalAlign=middle;whiteSpace=wrap;rounded=0;labelBackgroundColor=none;sketch=0;fontColor=#FFFFFF;" vertex="1" parent="IySlJ4m32YIS-ADElgs7-2">
          <mxGeometry x="640" y="740" width="80" height="20" as="geometry" />
        </mxCell>
        <mxCell id="OGUiCds7fTodX2qglqrH-2" value="&lt;font color=&quot;#000000&quot;&gt;End Date&lt;/font&gt;" style="text;html=1;strokeColor=none;fillColor=none;align=center;verticalAlign=middle;whiteSpace=wrap;rounded=0;labelBackgroundColor=none;sketch=0;fontColor=#FFFFFF;" vertex="1" parent="IySlJ4m32YIS-ADElgs7-2">
          <mxGeometry x="780" y="740" width="80" height="20" as="geometry" />
        </mxCell>
        <mxCell id="OGUiCds7fTodX2qglqrH-3" value="&lt;font color=&quot;#000000&quot;&gt;(+) New Session&lt;/font&gt;" style="rounded=0;whiteSpace=wrap;html=1;labelBackgroundColor=none;sketch=0;fillColor=none;fontColor=#FFFFFF;align=center;" vertex="1" parent="IySlJ4m32YIS-ADElgs7-2">
          <mxGeometry x="70" y="920" width="940" height="40" as="geometry" />
        </mxCell>
        <mxCell id="OGUiCds7fTodX2qglqrH-4" value="Newest" style="strokeWidth=1;shadow=0;dashed=0;align=center;html=1;shape=mxgraph.mockup.forms.comboBox;strokeColor=#999999;fillColor=#ddeeff;align=left;fillColor2=#aaddff;mainText=;fontColor=#666666;fontSize=17;spacingLeft=3;" vertex="1" parent="IySlJ4m32YIS-ADElgs7-2">
          <mxGeometry x="910" y="740" width="100" height="20" as="geometry" />
        </mxCell>
        <mxCell id="OGUiCds7fTodX2qglqrH-5" value="&lt;font color=&quot;#000000&quot;&gt;Session Name&lt;/font&gt;" style="text;html=1;strokeColor=none;fillColor=none;align=center;verticalAlign=middle;whiteSpace=wrap;rounded=0;labelBackgroundColor=none;sketch=0;fontColor=#FFFFFF;" vertex="1" parent="IySlJ4m32YIS-ADElgs7-2">
          <mxGeometry x="150" y="740" width="100" height="20" as="geometry" />
        </mxCell>
        <mxCell id="OGUiCds7fTodX2qglqrH-6" value="" style="rounded=0;whiteSpace=wrap;html=1;labelBackgroundColor=none;sketch=0;fillColor=none;fontColor=#FFFFFF;align=left;" vertex="1" parent="IySlJ4m32YIS-ADElgs7-2">
          <mxGeometry x="70" y="770" width="940" height="40" as="geometry" />
        </mxCell>
        <mxCell id="OGUiCds7fTodX2qglqrH-7" value="&lt;font color=&quot;#000000&quot;&gt;Spirit of Technology Winter 2019&lt;/font&gt;" style="text;html=1;strokeColor=none;fillColor=none;align=left;verticalAlign=middle;whiteSpace=wrap;rounded=0;labelBackgroundColor=none;sketch=0;fontColor=#FFFFFF;" vertex="1" parent="IySlJ4m32YIS-ADElgs7-2">
          <mxGeometry x="125" y="780" width="225" height="20" as="geometry" />
        </mxCell>
        <mxCell id="OGUiCds7fTodX2qglqrH-8" value="" style="rounded=0;whiteSpace=wrap;html=1;labelBackgroundColor=none;sketch=0;fillColor=none;fontColor=#FFFFFF;align=left;" vertex="1" parent="IySlJ4m32YIS-ADElgs7-2">
          <mxGeometry x="70" y="820" width="940" height="40" as="geometry" />
        </mxCell>
        <mxCell id="OGUiCds7fTodX2qglqrH-9" value="" style="rounded=0;whiteSpace=wrap;html=1;labelBackgroundColor=none;sketch=0;fillColor=none;fontColor=#FFFFFF;align=left;" vertex="1" parent="IySlJ4m32YIS-ADElgs7-2">
          <mxGeometry x="70" y="870" width="940" height="40" as="geometry" />
        </mxCell>
        <mxCell id="OGUiCds7fTodX2qglqrH-10" value="&lt;font color=&quot;#000000&quot;&gt;Spirit of Technology Winter 2018&lt;/font&gt;" style="text;html=1;strokeColor=none;fillColor=none;align=left;verticalAlign=middle;whiteSpace=wrap;rounded=0;labelBackgroundColor=none;sketch=0;fontColor=#FFFFFF;" vertex="1" parent="IySlJ4m32YIS-ADElgs7-2">
          <mxGeometry x="125" y="830" width="195" height="20" as="geometry" />
        </mxCell>
        <mxCell id="OGUiCds7fTodX2qglqrH-11" value="&lt;font color=&quot;#000000&quot;&gt;Spirit of Technology Fall 2018&lt;/font&gt;" style="text;html=1;strokeColor=none;fillColor=none;align=left;verticalAlign=middle;whiteSpace=wrap;rounded=0;labelBackgroundColor=none;sketch=0;fontColor=#FFFFFF;" vertex="1" parent="IySlJ4m32YIS-ADElgs7-2">
          <mxGeometry x="125" y="880" width="195" height="20" as="geometry" />
        </mxCell>
        <mxCell id="OGUiCds7fTodX2qglqrH-12" value="Enrolment" style="text;html=1;strokeColor=none;fillColor=none;align=center;verticalAlign=middle;whiteSpace=wrap;rounded=0;" vertex="1" parent="IySlJ4m32YIS-ADElgs7-2">
          <mxGeometry x="535" y="740" width="40" height="20" as="geometry" />
        </mxCell>
        <mxCell id="OGUiCds7fTodX2qglqrH-13" value="--" style="text;html=1;strokeColor=none;fillColor=none;align=center;verticalAlign=middle;whiteSpace=wrap;rounded=0;" vertex="1" parent="IySlJ4m32YIS-ADElgs7-2">
          <mxGeometry x="535" y="780" width="40" height="20" as="geometry" />
        </mxCell>
        <mxCell id="OGUiCds7fTodX2qglqrH-14" value="311" style="text;html=1;strokeColor=none;fillColor=none;align=center;verticalAlign=middle;whiteSpace=wrap;rounded=0;" vertex="1" parent="IySlJ4m32YIS-ADElgs7-2">
          <mxGeometry x="535" y="880" width="40" height="20" as="geometry" />
        </mxCell>
        <mxCell id="OGUiCds7fTodX2qglqrH-15" value="290" style="text;html=1;strokeColor=none;fillColor=none;align=center;verticalAlign=middle;whiteSpace=wrap;rounded=0;" vertex="1" parent="IySlJ4m32YIS-ADElgs7-2">
          <mxGeometry x="535" y="830" width="40" height="20" as="geometry" />
        </mxCell>
        <mxCell id="OGUiCds7fTodX2qglqrH-16" value="&lt;font color=&quot;#000000&quot;&gt;09/05/2020&lt;/font&gt;" style="text;html=1;strokeColor=none;fillColor=none;align=center;verticalAlign=middle;whiteSpace=wrap;rounded=0;labelBackgroundColor=none;sketch=0;fontColor=#FFFFFF;" vertex="1" parent="IySlJ4m32YIS-ADElgs7-2">
          <mxGeometry x="660" y="780" width="40" height="20" as="geometry" />
        </mxCell>
        <mxCell id="OGUiCds7fTodX2qglqrH-17" value="&lt;font color=&quot;#000000&quot;&gt;01/12/2020&lt;/font&gt;" style="text;html=1;strokeColor=none;fillColor=none;align=center;verticalAlign=middle;whiteSpace=wrap;rounded=0;labelBackgroundColor=none;sketch=0;fontColor=#FFFFFF;" vertex="1" parent="IySlJ4m32YIS-ADElgs7-2">
          <mxGeometry x="800" y="780" width="40" height="20" as="geometry" />
        </mxCell>
        <mxCell id="OGUiCds7fTodX2qglqrH-18" value="&lt;font color=&quot;#000000&quot;&gt;09/05/2020&lt;/font&gt;" style="text;html=1;strokeColor=none;fillColor=none;align=center;verticalAlign=middle;whiteSpace=wrap;rounded=0;labelBackgroundColor=none;sketch=0;fontColor=#FFFFFF;" vertex="1" parent="IySlJ4m32YIS-ADElgs7-2">
          <mxGeometry x="660" y="830" width="40" height="20" as="geometry" />
        </mxCell>
        <mxCell id="OGUiCds7fTodX2qglqrH-19" value="&lt;font color=&quot;#000000&quot;&gt;01/12/2020&lt;/font&gt;" style="text;html=1;strokeColor=none;fillColor=none;align=center;verticalAlign=middle;whiteSpace=wrap;rounded=0;labelBackgroundColor=none;sketch=0;fontColor=#FFFFFF;" vertex="1" parent="IySlJ4m32YIS-ADElgs7-2">
          <mxGeometry x="800" y="830" width="40" height="20" as="geometry" />
        </mxCell>
        <mxCell id="OGUiCds7fTodX2qglqrH-20" value="&lt;font color=&quot;#000000&quot;&gt;09/05/2020&lt;/font&gt;" style="text;html=1;strokeColor=none;fillColor=none;align=center;verticalAlign=middle;whiteSpace=wrap;rounded=0;labelBackgroundColor=none;sketch=0;fontColor=#FFFFFF;" vertex="1" parent="IySlJ4m32YIS-ADElgs7-2">
          <mxGeometry x="660" y="880" width="40" height="20" as="geometry" />
        </mxCell>
        <mxCell id="OGUiCds7fTodX2qglqrH-21" value="&lt;font color=&quot;#000000&quot;&gt;01/12/2020&lt;/font&gt;" style="text;html=1;strokeColor=none;fillColor=none;align=center;verticalAlign=middle;whiteSpace=wrap;rounded=0;labelBackgroundColor=none;sketch=0;fontColor=#FFFFFF;" vertex="1" parent="IySlJ4m32YIS-ADElgs7-2">
          <mxGeometry x="800" y="880" width="40" height="20" as="geometry" />
        </mxCell>
        <mxCell id="IySlJ4m32YIS-ADElgs7-30" value="&lt;font color=&quot;#000000&quot;&gt;09/05/2020&lt;/font&gt;" style="text;html=1;strokeColor=none;fillColor=none;align=center;verticalAlign=middle;whiteSpace=wrap;rounded=0;labelBackgroundColor=none;sketch=0;fontColor=#FFFFFF;" parent="IySlJ4m32YIS-ADElgs7-1" vertex="1">
          <mxGeometry x="2590" y="660" width="40" height="20" as="geometry" />
        </mxCell>
        <mxCell id="IySlJ4m32YIS-ADElgs7-31" value="&lt;font color=&quot;#000000&quot;&gt;01/12/2020&lt;/font&gt;" style="text;html=1;strokeColor=none;fillColor=none;align=center;verticalAlign=middle;whiteSpace=wrap;rounded=0;labelBackgroundColor=none;sketch=0;fontColor=#FFFFFF;" parent="IySlJ4m32YIS-ADElgs7-1" vertex="1">
          <mxGeometry x="2730" y="660" width="40" height="20" as="geometry" />
        </mxCell>
        <mxCell id="IySlJ4m32YIS-ADElgs7-36" value="&lt;font color=&quot;#000000&quot;&gt;09/05/2020&lt;/font&gt;" style="text;html=1;strokeColor=none;fillColor=none;align=center;verticalAlign=middle;whiteSpace=wrap;rounded=0;labelBackgroundColor=none;sketch=0;fontColor=#FFFFFF;" parent="IySlJ4m32YIS-ADElgs7-1" vertex="1">
          <mxGeometry x="2590" y="710" width="40" height="20" as="geometry" />
        </mxCell>
        <mxCell id="IySlJ4m32YIS-ADElgs7-37" value="&lt;font color=&quot;#000000&quot;&gt;01/12/2020&lt;/font&gt;" style="text;html=1;strokeColor=none;fillColor=none;align=center;verticalAlign=middle;whiteSpace=wrap;rounded=0;labelBackgroundColor=none;sketch=0;fontColor=#FFFFFF;" parent="IySlJ4m32YIS-ADElgs7-1" vertex="1">
          <mxGeometry x="2730" y="710" width="40" height="20" as="geometry" />
        </mxCell>
        <mxCell id="IySlJ4m32YIS-ADElgs7-42" value="&lt;font color=&quot;#000000&quot;&gt;09/05/2020&lt;/font&gt;" style="text;html=1;strokeColor=none;fillColor=none;align=center;verticalAlign=middle;whiteSpace=wrap;rounded=0;labelBackgroundColor=none;sketch=0;fontColor=#FFFFFF;" parent="IySlJ4m32YIS-ADElgs7-1" vertex="1">
          <mxGeometry x="2590" y="760" width="40" height="20" as="geometry" />
        </mxCell>
        <mxCell id="IySlJ4m32YIS-ADElgs7-43" value="&lt;font color=&quot;#000000&quot;&gt;01/12/2020&lt;/font&gt;" style="text;html=1;strokeColor=none;fillColor=none;align=center;verticalAlign=middle;whiteSpace=wrap;rounded=0;labelBackgroundColor=none;sketch=0;fontColor=#FFFFFF;" parent="IySlJ4m32YIS-ADElgs7-1" vertex="1">
          <mxGeometry x="2730" y="760" width="40" height="20" as="geometry" />
        </mxCell>
      </root>
    </mxGraphModel>
  </diagram>
  <diagram id="kgqk3A4xNDgnONkSQTrr" name="Admin Classes">
    <mxGraphModel dx="-241" dy="784" grid="1" gridSize="10" guides="1" tooltips="1" connect="1" arrows="1" fold="1" page="1" pageScale="1" pageWidth="827" pageHeight="1169" math="0" shadow="0">
      <root>
        <mxCell id="4ag227UPZ1fRVBkqKKMu-0" />
        <mxCell id="4ag227UPZ1fRVBkqKKMu-1" parent="4ag227UPZ1fRVBkqKKMu-0" />
        <mxCell id="xab2ETsS7Vpg-kuJw7vP-0" value="" style="strokeWidth=1;shadow=0;dashed=0;align=center;html=1;shape=mxgraph.mockup.containers.browserWindow;rSize=0;strokeColor2=#008cff;strokeColor3=#c4c4c4;mainText=,;recursiveResize=0;strokeColor=#FFFFFF;fontColor=#FFFFFF;" parent="4ag227UPZ1fRVBkqKKMu-1" vertex="1">
          <mxGeometry x="1930" y="170" width="1110" height="620" as="geometry" />
        </mxCell>
        <mxCell id="xab2ETsS7Vpg-kuJw7vP-1" value="Page 1" style="strokeWidth=1;shadow=0;dashed=0;align=center;html=1;shape=mxgraph.mockup.containers.anchor;fontSize=17;fontColor=#666666;align=left;" parent="xab2ETsS7Vpg-kuJw7vP-0" vertex="1">
          <mxGeometry x="60" y="12" width="110" height="26" as="geometry" />
        </mxCell>
        <mxCell id="xab2ETsS7Vpg-kuJw7vP-2" value="https://www.example.com/admin/session=abc1234/class" style="strokeWidth=1;shadow=0;dashed=0;align=center;html=1;shape=mxgraph.mockup.containers.anchor;rSize=0;fontSize=17;fontColor=#666666;align=left;" parent="xab2ETsS7Vpg-kuJw7vP-0" vertex="1">
          <mxGeometry x="131" y="60" width="799" height="26" as="geometry" />
        </mxCell>
        <mxCell id="Gz3rhN3Xi4-Aqk_VAMeH-4" value="&lt;font color=&quot;#000000&quot; style=&quot;font-size: 18px&quot;&gt;Spirit of Technology Winter 2020&lt;/font&gt;" style="text;html=1;strokeColor=none;fillColor=none;align=left;verticalAlign=middle;whiteSpace=wrap;rounded=0;labelBackgroundColor=none;sketch=0;fontColor=#FFFFFF;" parent="xab2ETsS7Vpg-kuJw7vP-0" vertex="1">
          <mxGeometry x="70" y="140" width="280" height="50" as="geometry" />
        </mxCell>
        <mxCell id="Gz3rhN3Xi4-Aqk_VAMeH-14" value="&lt;font color=&quot;#000000&quot;&gt;Name&lt;/font&gt;" style="text;html=1;strokeColor=none;fillColor=none;align=center;verticalAlign=middle;whiteSpace=wrap;rounded=0;labelBackgroundColor=none;sketch=0;fontColor=#FFFFFF;" parent="xab2ETsS7Vpg-kuJw7vP-0" vertex="1">
          <mxGeometry x="200" y="190" width="100" height="20" as="geometry" />
        </mxCell>
        <mxCell id="Gz3rhN3Xi4-Aqk_VAMeH-15" value="&lt;font color=&quot;#000000&quot;&gt;Students&lt;/font&gt;" style="text;html=1;strokeColor=none;fillColor=none;align=center;verticalAlign=middle;whiteSpace=wrap;rounded=0;labelBackgroundColor=none;sketch=0;fontColor=#FFFFFF;" parent="xab2ETsS7Vpg-kuJw7vP-0" vertex="1">
          <mxGeometry x="510.5" y="190" width="40" height="20" as="geometry" />
        </mxCell>
        <mxCell id="Gz3rhN3Xi4-Aqk_VAMeH-18" value="&lt;font color=&quot;#000000&quot;&gt;Teachers&lt;/font&gt;" style="text;html=1;strokeColor=none;fillColor=none;align=center;verticalAlign=middle;whiteSpace=wrap;rounded=0;labelBackgroundColor=none;sketch=0;fontColor=#FFFFFF;" parent="xab2ETsS7Vpg-kuJw7vP-0" vertex="1">
          <mxGeometry x="330" y="190" width="50" height="20" as="geometry" />
        </mxCell>
        <mxCell id="fF0Rxr_eLGxrQjmQgVA_-1" value="&lt;font color=&quot;#000000&quot;&gt;(+) Add Class&lt;/font&gt;" style="rounded=0;whiteSpace=wrap;html=1;labelBackgroundColor=none;sketch=0;fillColor=none;fontColor=#FFFFFF;align=center;" parent="xab2ETsS7Vpg-kuJw7vP-0" vertex="1">
          <mxGeometry x="70" y="470" width="940" height="40" as="geometry" />
        </mxCell>
        <mxCell id="fF0Rxr_eLGxrQjmQgVA_-3" value="Popularity" style="strokeWidth=1;shadow=0;dashed=0;align=center;html=1;shape=mxgraph.mockup.forms.comboBox;strokeColor=#999999;fillColor=#ddeeff;align=left;fillColor2=#aaddff;mainText=;fontColor=#666666;fontSize=17;spacingLeft=3;" parent="xab2ETsS7Vpg-kuJw7vP-0" vertex="1">
          <mxGeometry x="870" y="190" width="140" height="20" as="geometry" />
        </mxCell>
        <mxCell id="jGc5xn-Mj8LQxa471qkS-0" value="&lt;font color=&quot;#000000&quot;&gt;Course Code&lt;/font&gt;" style="text;html=1;strokeColor=none;fillColor=none;align=center;verticalAlign=middle;whiteSpace=wrap;rounded=0;labelBackgroundColor=none;sketch=0;fontColor=#FFFFFF;" parent="xab2ETsS7Vpg-kuJw7vP-0" vertex="1">
          <mxGeometry x="110" y="190" width="80" height="20" as="geometry" />
        </mxCell>
        <mxCell id="Gz3rhN3Xi4-Aqk_VAMeH-6" value="" style="rounded=0;whiteSpace=wrap;html=1;labelBackgroundColor=none;sketch=0;fillColor=none;fontColor=#FFFFFF;align=left;" parent="xab2ETsS7Vpg-kuJw7vP-0" vertex="1">
          <mxGeometry x="70" y="220" width="940" height="40" as="geometry" />
        </mxCell>
        <mxCell id="jGc5xn-Mj8LQxa471qkS-1" value="&lt;font color=&quot;#000000&quot;&gt;ABC1234&lt;/font&gt;" style="text;html=1;strokeColor=none;fillColor=none;align=center;verticalAlign=middle;whiteSpace=wrap;rounded=0;labelBackgroundColor=none;sketch=0;fontColor=#FFFFFF;" parent="xab2ETsS7Vpg-kuJw7vP-0" vertex="1">
          <mxGeometry x="125" y="230" width="50" height="20" as="geometry" />
        </mxCell>
        <mxCell id="1Hca51vYOg5njFeodVin-24" value="" style="rounded=0;whiteSpace=wrap;html=1;labelBackgroundColor=none;sketch=0;fillColor=none;fontColor=#FFFFFF;align=left;" parent="xab2ETsS7Vpg-kuJw7vP-0" vertex="1">
          <mxGeometry x="70" y="270" width="940" height="40" as="geometry" />
        </mxCell>
        <mxCell id="1Hca51vYOg5njFeodVin-17" value="" style="rounded=0;whiteSpace=wrap;html=1;labelBackgroundColor=none;sketch=0;fillColor=none;fontColor=#FFFFFF;align=left;" parent="xab2ETsS7Vpg-kuJw7vP-0" vertex="1">
          <mxGeometry x="70" y="320" width="940" height="40" as="geometry" />
        </mxCell>
        <mxCell id="1Hca51vYOg5njFeodVin-10" value="" style="rounded=0;whiteSpace=wrap;html=1;labelBackgroundColor=none;sketch=0;fillColor=none;fontColor=#FFFFFF;align=left;" parent="xab2ETsS7Vpg-kuJw7vP-0" vertex="1">
          <mxGeometry x="70" y="370" width="940" height="40" as="geometry" />
        </mxCell>
        <mxCell id="1Hca51vYOg5njFeodVin-3" value="" style="rounded=0;whiteSpace=wrap;html=1;labelBackgroundColor=none;sketch=0;fillColor=none;fontColor=#FFFFFF;align=left;" parent="xab2ETsS7Vpg-kuJw7vP-0" vertex="1">
          <mxGeometry x="70" y="420" width="940" height="40" as="geometry" />
        </mxCell>
        <mxCell id="jGc5xn-Mj8LQxa471qkS-7" value="&lt;font color=&quot;#000000&quot;&gt;ABC1234&lt;/font&gt;" style="text;html=1;strokeColor=none;fillColor=none;align=center;verticalAlign=middle;whiteSpace=wrap;rounded=0;labelBackgroundColor=none;sketch=0;fontColor=#FFFFFF;" parent="xab2ETsS7Vpg-kuJw7vP-0" vertex="1">
          <mxGeometry x="125" y="280" width="50" height="20" as="geometry" />
        </mxCell>
        <mxCell id="jGc5xn-Mj8LQxa471qkS-8" value="&lt;font color=&quot;#000000&quot;&gt;ABC1234&lt;/font&gt;" style="text;html=1;strokeColor=none;fillColor=none;align=center;verticalAlign=middle;whiteSpace=wrap;rounded=0;labelBackgroundColor=none;sketch=0;fontColor=#FFFFFF;" parent="xab2ETsS7Vpg-kuJw7vP-0" vertex="1">
          <mxGeometry x="125" y="330" width="50" height="20" as="geometry" />
        </mxCell>
        <mxCell id="jGc5xn-Mj8LQxa471qkS-9" value="&lt;font color=&quot;#000000&quot;&gt;ABC1234&lt;/font&gt;" style="text;html=1;strokeColor=none;fillColor=none;align=center;verticalAlign=middle;whiteSpace=wrap;rounded=0;labelBackgroundColor=none;sketch=0;fontColor=#FFFFFF;" parent="xab2ETsS7Vpg-kuJw7vP-0" vertex="1">
          <mxGeometry x="125" y="380" width="50" height="20" as="geometry" />
        </mxCell>
        <mxCell id="jGc5xn-Mj8LQxa471qkS-10" value="&lt;font color=&quot;#000000&quot;&gt;ABC1234&lt;/font&gt;" style="text;html=1;strokeColor=none;fillColor=none;align=center;verticalAlign=middle;whiteSpace=wrap;rounded=0;labelBackgroundColor=none;sketch=0;fontColor=#FFFFFF;" parent="xab2ETsS7Vpg-kuJw7vP-0" vertex="1">
          <mxGeometry x="125" y="430" width="50" height="20" as="geometry" />
        </mxCell>
        <mxCell id="MxUYi105iSz9zHCgGITE-0" value="&lt;font color=&quot;#000000&quot;&gt;Python I&lt;/font&gt;" style="text;html=1;strokeColor=none;fillColor=none;align=center;verticalAlign=middle;whiteSpace=wrap;rounded=0;labelBackgroundColor=none;sketch=0;fontColor=#FFFFFF;" parent="xab2ETsS7Vpg-kuJw7vP-0" vertex="1">
          <mxGeometry x="225" y="230" width="50" height="20" as="geometry" />
        </mxCell>
        <mxCell id="1Hca51vYOg5njFeodVin-5" value="&lt;font color=&quot;#000000&quot;&gt;Html I&lt;/font&gt;" style="text;html=1;strokeColor=none;fillColor=none;align=center;verticalAlign=middle;whiteSpace=wrap;rounded=0;labelBackgroundColor=none;sketch=0;fontColor=#FFFFFF;" parent="xab2ETsS7Vpg-kuJw7vP-0" vertex="1">
          <mxGeometry x="215" y="280" width="70" height="20" as="geometry" />
        </mxCell>
        <mxCell id="1Hca51vYOg5njFeodVin-12" value="&lt;font color=&quot;#000000&quot;&gt;Html II&lt;/font&gt;" style="text;html=1;strokeColor=none;fillColor=none;align=center;verticalAlign=middle;whiteSpace=wrap;rounded=0;labelBackgroundColor=none;sketch=0;fontColor=#FFFFFF;" parent="xab2ETsS7Vpg-kuJw7vP-0" vertex="1">
          <mxGeometry x="225" y="330" width="50" height="20" as="geometry" />
        </mxCell>
        <mxCell id="1Hca51vYOg5njFeodVin-19" value="&lt;font color=&quot;#000000&quot;&gt;Java I&lt;/font&gt;" style="text;html=1;strokeColor=none;fillColor=none;align=center;verticalAlign=middle;whiteSpace=wrap;rounded=0;labelBackgroundColor=none;sketch=0;fontColor=#FFFFFF;" parent="xab2ETsS7Vpg-kuJw7vP-0" vertex="1">
          <mxGeometry x="225" y="380" width="50" height="20" as="geometry" />
        </mxCell>
        <mxCell id="1Hca51vYOg5njFeodVin-26" value="&lt;font color=&quot;#000000&quot;&gt;Java II&lt;/font&gt;" style="text;html=1;strokeColor=none;fillColor=none;align=center;verticalAlign=middle;whiteSpace=wrap;rounded=0;labelBackgroundColor=none;sketch=0;fontColor=#FFFFFF;" parent="xab2ETsS7Vpg-kuJw7vP-0" vertex="1">
          <mxGeometry x="225" y="430" width="50" height="20" as="geometry" />
        </mxCell>
        <mxCell id="MxUYi105iSz9zHCgGITE-2" value="&lt;font color=&quot;#000000&quot;&gt;Professor A, Assistant B&lt;/font&gt;" style="text;html=1;strokeColor=none;fillColor=none;align=left;verticalAlign=middle;whiteSpace=wrap;rounded=0;labelBackgroundColor=none;sketch=0;fontColor=#FFFFFF;" parent="xab2ETsS7Vpg-kuJw7vP-0" vertex="1">
          <mxGeometry x="330" y="230" width="150" height="20" as="geometry" />
        </mxCell>
        <mxCell id="WXG-YqjzoxeOnx_S5cDN-0" value="&lt;font color=&quot;#000000&quot;&gt;Professor A, Assistant B&lt;/font&gt;" style="text;html=1;strokeColor=none;fillColor=none;align=left;verticalAlign=middle;whiteSpace=wrap;rounded=0;labelBackgroundColor=none;sketch=0;fontColor=#FFFFFF;" parent="xab2ETsS7Vpg-kuJw7vP-0" vertex="1">
          <mxGeometry x="330" y="280" width="150" height="20" as="geometry" />
        </mxCell>
        <mxCell id="WXG-YqjzoxeOnx_S5cDN-1" value="&lt;font color=&quot;#000000&quot;&gt;Professor A, Assistant B&lt;/font&gt;" style="text;html=1;strokeColor=none;fillColor=none;align=left;verticalAlign=middle;whiteSpace=wrap;rounded=0;labelBackgroundColor=none;sketch=0;fontColor=#FFFFFF;" parent="xab2ETsS7Vpg-kuJw7vP-0" vertex="1">
          <mxGeometry x="330" y="330" width="150" height="20" as="geometry" />
        </mxCell>
        <mxCell id="WXG-YqjzoxeOnx_S5cDN-2" value="&lt;font color=&quot;#000000&quot;&gt;Professor A, Assistant B&lt;/font&gt;" style="text;html=1;strokeColor=none;fillColor=none;align=left;verticalAlign=middle;whiteSpace=wrap;rounded=0;labelBackgroundColor=none;sketch=0;fontColor=#FFFFFF;" parent="xab2ETsS7Vpg-kuJw7vP-0" vertex="1">
          <mxGeometry x="330" y="380" width="150" height="20" as="geometry" />
        </mxCell>
        <mxCell id="WXG-YqjzoxeOnx_S5cDN-3" value="&lt;font color=&quot;#000000&quot;&gt;Professor A, Assistant B, Teacher C&lt;/font&gt;" style="text;html=1;strokeColor=none;fillColor=none;align=left;verticalAlign=middle;whiteSpace=wrap;rounded=0;labelBackgroundColor=none;sketch=0;fontColor=#FFFFFF;" parent="xab2ETsS7Vpg-kuJw7vP-0" vertex="1">
          <mxGeometry x="330" y="430" width="150" height="20" as="geometry" />
        </mxCell>
        <mxCell id="xXFoH21dCfjbrB-dsVjH-3" value="" style="rounded=0;whiteSpace=wrap;html=1;labelBackgroundColor=none;sketch=0;fillColor=none;fontColor=#FFFFFF;" parent="4ag227UPZ1fRVBkqKKMu-1" vertex="1">
          <mxGeometry x="2010" y="400" width="20" height="20" as="geometry" />
        </mxCell>
        <mxCell id="MxUYi105iSz9zHCgGITE-1" value="&lt;font color=&quot;#000000&quot;&gt;34&lt;/font&gt;" style="text;html=1;strokeColor=none;fillColor=none;align=center;verticalAlign=middle;whiteSpace=wrap;rounded=0;labelBackgroundColor=none;sketch=0;fontColor=#FFFFFF;" parent="4ag227UPZ1fRVBkqKKMu-1" vertex="1">
          <mxGeometry x="2440.5" y="400" width="40" height="20" as="geometry" />
        </mxCell>
        <mxCell id="1Hca51vYOg5njFeodVin-4" value="" style="rounded=0;whiteSpace=wrap;html=1;labelBackgroundColor=none;sketch=0;fillColor=none;fontColor=#FFFFFF;" parent="4ag227UPZ1fRVBkqKKMu-1" vertex="1">
          <mxGeometry x="2010" y="450" width="20" height="20" as="geometry" />
        </mxCell>
        <mxCell id="1Hca51vYOg5njFeodVin-6" value="&lt;font color=&quot;#000000&quot;&gt;34&lt;/font&gt;" style="text;html=1;strokeColor=none;fillColor=none;align=center;verticalAlign=middle;whiteSpace=wrap;rounded=0;labelBackgroundColor=none;sketch=0;fontColor=#FFFFFF;" parent="4ag227UPZ1fRVBkqKKMu-1" vertex="1">
          <mxGeometry x="2440.5" y="450" width="40" height="20" as="geometry" />
        </mxCell>
        <mxCell id="1Hca51vYOg5njFeodVin-11" value="" style="rounded=0;whiteSpace=wrap;html=1;labelBackgroundColor=none;sketch=0;fillColor=none;fontColor=#FFFFFF;" parent="4ag227UPZ1fRVBkqKKMu-1" vertex="1">
          <mxGeometry x="2010" y="500" width="20" height="20" as="geometry" />
        </mxCell>
        <mxCell id="1Hca51vYOg5njFeodVin-13" value="&lt;font color=&quot;#000000&quot;&gt;34&lt;/font&gt;" style="text;html=1;strokeColor=none;fillColor=none;align=center;verticalAlign=middle;whiteSpace=wrap;rounded=0;labelBackgroundColor=none;sketch=0;fontColor=#FFFFFF;" parent="4ag227UPZ1fRVBkqKKMu-1" vertex="1">
          <mxGeometry x="2440.5" y="500" width="40" height="20" as="geometry" />
        </mxCell>
        <mxCell id="1Hca51vYOg5njFeodVin-18" value="" style="rounded=0;whiteSpace=wrap;html=1;labelBackgroundColor=none;sketch=0;fillColor=none;fontColor=#FFFFFF;" parent="4ag227UPZ1fRVBkqKKMu-1" vertex="1">
          <mxGeometry x="2010" y="550" width="20" height="20" as="geometry" />
        </mxCell>
        <mxCell id="1Hca51vYOg5njFeodVin-20" value="&lt;font color=&quot;#000000&quot;&gt;34&lt;/font&gt;" style="text;html=1;strokeColor=none;fillColor=none;align=center;verticalAlign=middle;whiteSpace=wrap;rounded=0;labelBackgroundColor=none;sketch=0;fontColor=#FFFFFF;" parent="4ag227UPZ1fRVBkqKKMu-1" vertex="1">
          <mxGeometry x="2440.5" y="550" width="40" height="20" as="geometry" />
        </mxCell>
        <mxCell id="1Hca51vYOg5njFeodVin-25" value="" style="rounded=0;whiteSpace=wrap;html=1;labelBackgroundColor=none;sketch=0;fillColor=none;fontColor=#FFFFFF;" parent="4ag227UPZ1fRVBkqKKMu-1" vertex="1">
          <mxGeometry x="2010" y="600" width="20" height="20" as="geometry" />
        </mxCell>
        <mxCell id="1Hca51vYOg5njFeodVin-27" value="&lt;font color=&quot;#000000&quot;&gt;34&lt;/font&gt;" style="text;html=1;strokeColor=none;fillColor=none;align=center;verticalAlign=middle;whiteSpace=wrap;rounded=0;labelBackgroundColor=none;sketch=0;fontColor=#FFFFFF;" parent="4ag227UPZ1fRVBkqKKMu-1" vertex="1">
          <mxGeometry x="2440.5" y="600" width="40" height="20" as="geometry" />
        </mxCell>
      </root>
    </mxGraphModel>
  </diagram>
  <diagram name="Admin Edit Class" id="k0AwPxlGWd8sHSLuTxOq">
    <mxGraphModel dx="-241" dy="784" grid="1" gridSize="10" guides="1" tooltips="1" connect="1" arrows="1" fold="1" page="1" pageScale="1" pageWidth="827" pageHeight="1169" math="0" shadow="0">
      <root>
        <mxCell id="-u7GObjVBjazYlyBJwz2-0" />
        <mxCell id="-u7GObjVBjazYlyBJwz2-1" parent="-u7GObjVBjazYlyBJwz2-0" />
        <mxCell id="-u7GObjVBjazYlyBJwz2-2" value="" style="strokeWidth=1;shadow=0;dashed=0;align=center;html=1;shape=mxgraph.mockup.containers.browserWindow;rSize=0;strokeColor2=#008cff;strokeColor3=#c4c4c4;mainText=,;recursiveResize=0;strokeColor=#FFFFFF;fontColor=#FFFFFF;" parent="-u7GObjVBjazYlyBJwz2-1" vertex="1">
          <mxGeometry x="1760" y="180" width="1110" height="1040" as="geometry" />
        </mxCell>
        <mxCell id="-u7GObjVBjazYlyBJwz2-3" value="Page 1" style="strokeWidth=1;shadow=0;dashed=0;align=center;html=1;shape=mxgraph.mockup.containers.anchor;fontSize=17;fontColor=#666666;align=left;" parent="-u7GObjVBjazYlyBJwz2-2" vertex="1">
          <mxGeometry x="60" y="12" width="110" height="26" as="geometry" />
        </mxCell>
        <mxCell id="-u7GObjVBjazYlyBJwz2-4" value="https://www.example.com/admin/session=abc1234/class=abc1234" style="strokeWidth=1;shadow=0;dashed=0;align=center;html=1;shape=mxgraph.mockup.containers.anchor;rSize=0;fontSize=17;fontColor=#666666;align=left;" parent="-u7GObjVBjazYlyBJwz2-2" vertex="1">
          <mxGeometry x="131" y="60" width="869" height="26" as="geometry" />
        </mxCell>
        <mxCell id="-u7GObjVBjazYlyBJwz2-5" value="&lt;font color=&quot;#000000&quot; style=&quot;font-size: 26px&quot;&gt;Python 1&lt;/font&gt;" style="text;html=1;strokeColor=none;fillColor=none;align=left;verticalAlign=middle;whiteSpace=wrap;rounded=0;labelBackgroundColor=none;sketch=0;fontColor=#FFFFFF;" parent="-u7GObjVBjazYlyBJwz2-2" vertex="1">
          <mxGeometry x="60" y="150" width="280" height="50" as="geometry" />
        </mxCell>
        <mxCell id="-u7GObjVBjazYlyBJwz2-6" value="&lt;font color=&quot;#000000&quot;&gt;First Name&lt;/font&gt;" style="text;html=1;strokeColor=none;fillColor=none;align=center;verticalAlign=middle;whiteSpace=wrap;rounded=0;labelBackgroundColor=none;sketch=0;fontColor=#FFFFFF;" parent="-u7GObjVBjazYlyBJwz2-2" vertex="1">
          <mxGeometry x="208.5" y="270" width="100" height="20" as="geometry" />
        </mxCell>
        <mxCell id="-u7GObjVBjazYlyBJwz2-7" value="&lt;font color=&quot;#000000&quot;&gt;Last Name&lt;/font&gt;" style="text;html=1;strokeColor=none;fillColor=none;align=center;verticalAlign=middle;whiteSpace=wrap;rounded=0;labelBackgroundColor=none;sketch=0;fontColor=#FFFFFF;" parent="-u7GObjVBjazYlyBJwz2-2" vertex="1">
          <mxGeometry x="331.5" y="270" width="70" height="20" as="geometry" />
        </mxCell>
        <mxCell id="-u7GObjVBjazYlyBJwz2-12" value="&lt;font color=&quot;#000000&quot;&gt;(+) Add Teacher&lt;/font&gt;" style="rounded=0;whiteSpace=wrap;html=1;labelBackgroundColor=none;sketch=0;fillColor=none;fontColor=#FFFFFF;align=center;" parent="-u7GObjVBjazYlyBJwz2-2" vertex="1">
          <mxGeometry x="65" y="400" width="940" height="40" as="geometry" />
        </mxCell>
        <mxCell id="-u7GObjVBjazYlyBJwz2-13" value="First Name" style="strokeWidth=1;shadow=0;dashed=0;align=center;html=1;shape=mxgraph.mockup.forms.comboBox;strokeColor=#999999;fillColor=#ddeeff;align=left;fillColor2=#aaddff;mainText=;fontColor=#666666;fontSize=17;spacingLeft=3;" parent="-u7GObjVBjazYlyBJwz2-2" vertex="1">
          <mxGeometry x="855" y="250" width="150" height="30" as="geometry" />
        </mxCell>
        <mxCell id="-u7GObjVBjazYlyBJwz2-15" value="" style="rounded=0;whiteSpace=wrap;html=1;labelBackgroundColor=none;sketch=0;fillColor=none;fontColor=#FFFFFF;align=left;" parent="-u7GObjVBjazYlyBJwz2-2" vertex="1">
          <mxGeometry x="65" y="300" width="940" height="40" as="geometry" />
        </mxCell>
        <mxCell id="-u7GObjVBjazYlyBJwz2-17" value="" style="rounded=0;whiteSpace=wrap;html=1;labelBackgroundColor=none;sketch=0;fillColor=none;fontColor=#FFFFFF;align=left;" parent="-u7GObjVBjazYlyBJwz2-2" vertex="1">
          <mxGeometry x="65" y="350" width="940" height="40" as="geometry" />
        </mxCell>
        <mxCell id="-u7GObjVBjazYlyBJwz2-27" value="&lt;font color=&quot;#000000&quot;&gt;Smith&lt;/font&gt;" style="text;html=1;strokeColor=none;fillColor=none;align=center;verticalAlign=middle;whiteSpace=wrap;rounded=0;labelBackgroundColor=none;sketch=0;fontColor=#FFFFFF;" parent="-u7GObjVBjazYlyBJwz2-2" vertex="1">
          <mxGeometry x="329" y="310" width="70" height="20" as="geometry" />
        </mxCell>
        <mxCell id="dtgQU7fJK5z5vEjgvxyz-0" value="&lt;font color=&quot;#000000&quot;&gt;Teacher ID&lt;/font&gt;" style="text;html=1;strokeColor=none;fillColor=none;align=center;verticalAlign=middle;whiteSpace=wrap;rounded=0;labelBackgroundColor=none;sketch=0;fontColor=#FFFFFF;" parent="-u7GObjVBjazYlyBJwz2-2" vertex="1">
          <mxGeometry x="112.5" y="270" width="80" height="20" as="geometry" />
        </mxCell>
        <mxCell id="-u7GObjVBjazYlyBJwz2-26" value="&lt;font color=&quot;#000000&quot;&gt;John&lt;/font&gt;" style="text;html=1;strokeColor=none;fillColor=none;align=center;verticalAlign=middle;whiteSpace=wrap;rounded=0;labelBackgroundColor=none;sketch=0;fontColor=#FFFFFF;" parent="-u7GObjVBjazYlyBJwz2-2" vertex="1">
          <mxGeometry x="222" y="310" width="70" height="20" as="geometry" />
        </mxCell>
        <mxCell id="CMMq3PchqSjSSNPeEAR8-0" value="1234567" style="text;html=1;strokeColor=none;fillColor=none;align=center;verticalAlign=middle;whiteSpace=wrap;rounded=0;" parent="-u7GObjVBjazYlyBJwz2-2" vertex="1">
          <mxGeometry x="131" y="310" width="40" height="20" as="geometry" />
        </mxCell>
        <mxCell id="J224VBJnsIR9nlnnaOz--14" value="&lt;font color=&quot;#000000&quot;&gt;First Name&lt;/font&gt;" style="text;html=1;strokeColor=none;fillColor=none;align=center;verticalAlign=middle;whiteSpace=wrap;rounded=0;labelBackgroundColor=none;sketch=0;fontColor=#FFFFFF;" parent="-u7GObjVBjazYlyBJwz2-2" vertex="1">
          <mxGeometry x="200" y="510" width="100" height="20" as="geometry" />
        </mxCell>
        <mxCell id="J224VBJnsIR9nlnnaOz--15" value="&lt;font color=&quot;#000000&quot;&gt;Last Name&lt;/font&gt;" style="text;html=1;strokeColor=none;fillColor=none;align=center;verticalAlign=middle;whiteSpace=wrap;rounded=0;labelBackgroundColor=none;sketch=0;fontColor=#FFFFFF;" parent="-u7GObjVBjazYlyBJwz2-2" vertex="1">
          <mxGeometry x="323" y="510" width="70" height="20" as="geometry" />
        </mxCell>
        <mxCell id="J224VBJnsIR9nlnnaOz--16" value="&lt;font color=&quot;#000000&quot;&gt;(+) Add Student&lt;/font&gt;" style="rounded=0;whiteSpace=wrap;html=1;labelBackgroundColor=none;sketch=0;fillColor=none;fontColor=#FFFFFF;align=center;" parent="-u7GObjVBjazYlyBJwz2-2" vertex="1">
          <mxGeometry x="60" y="790" width="940" height="40" as="geometry" />
        </mxCell>
        <mxCell id="J224VBJnsIR9nlnnaOz--18" value="" style="rounded=0;whiteSpace=wrap;html=1;labelBackgroundColor=none;sketch=0;fillColor=none;fontColor=#FFFFFF;align=left;" parent="-u7GObjVBjazYlyBJwz2-2" vertex="1">
          <mxGeometry x="60" y="540" width="940" height="40" as="geometry" />
        </mxCell>
        <mxCell id="J224VBJnsIR9nlnnaOz--19" value="" style="rounded=0;whiteSpace=wrap;html=1;labelBackgroundColor=none;sketch=0;fillColor=none;fontColor=#FFFFFF;align=left;" parent="-u7GObjVBjazYlyBJwz2-2" vertex="1">
          <mxGeometry x="60" y="590" width="940" height="40" as="geometry" />
        </mxCell>
        <mxCell id="J224VBJnsIR9nlnnaOz--20" value="" style="rounded=0;whiteSpace=wrap;html=1;labelBackgroundColor=none;sketch=0;fillColor=none;fontColor=#FFFFFF;align=left;" parent="-u7GObjVBjazYlyBJwz2-2" vertex="1">
          <mxGeometry x="60" y="640" width="940" height="40" as="geometry" />
        </mxCell>
        <mxCell id="J224VBJnsIR9nlnnaOz--21" value="" style="rounded=0;whiteSpace=wrap;html=1;labelBackgroundColor=none;sketch=0;fillColor=none;fontColor=#FFFFFF;align=left;" parent="-u7GObjVBjazYlyBJwz2-2" vertex="1">
          <mxGeometry x="60" y="690" width="940" height="40" as="geometry" />
        </mxCell>
        <mxCell id="J224VBJnsIR9nlnnaOz--22" value="" style="rounded=0;whiteSpace=wrap;html=1;labelBackgroundColor=none;sketch=0;fillColor=none;fontColor=#FFFFFF;align=left;" parent="-u7GObjVBjazYlyBJwz2-2" vertex="1">
          <mxGeometry x="60" y="740" width="940" height="40" as="geometry" />
        </mxCell>
        <mxCell id="J224VBJnsIR9nlnnaOz--23" value="&lt;font color=&quot;#000000&quot;&gt;Smith&lt;/font&gt;" style="text;html=1;strokeColor=none;fillColor=none;align=center;verticalAlign=middle;whiteSpace=wrap;rounded=0;labelBackgroundColor=none;sketch=0;fontColor=#FFFFFF;" parent="-u7GObjVBjazYlyBJwz2-2" vertex="1">
          <mxGeometry x="323" y="550" width="70" height="20" as="geometry" />
        </mxCell>
        <mxCell id="J224VBJnsIR9nlnnaOz--24" value="&lt;font color=&quot;#000000&quot;&gt;Student ID&lt;/font&gt;" style="text;html=1;strokeColor=none;fillColor=none;align=center;verticalAlign=middle;whiteSpace=wrap;rounded=0;labelBackgroundColor=none;sketch=0;fontColor=#FFFFFF;" parent="-u7GObjVBjazYlyBJwz2-2" vertex="1">
          <mxGeometry x="104" y="510" width="80" height="20" as="geometry" />
        </mxCell>
        <mxCell id="J224VBJnsIR9nlnnaOz--25" value="&lt;font color=&quot;#000000&quot;&gt;John&lt;/font&gt;" style="text;html=1;strokeColor=none;fillColor=none;align=center;verticalAlign=middle;whiteSpace=wrap;rounded=0;labelBackgroundColor=none;sketch=0;fontColor=#FFFFFF;" parent="-u7GObjVBjazYlyBJwz2-2" vertex="1">
          <mxGeometry x="216" y="550" width="70" height="20" as="geometry" />
        </mxCell>
        <mxCell id="J224VBJnsIR9nlnnaOz--26" value="1234567" style="text;html=1;strokeColor=none;fillColor=none;align=center;verticalAlign=middle;whiteSpace=wrap;rounded=0;" parent="-u7GObjVBjazYlyBJwz2-2" vertex="1">
          <mxGeometry x="125" y="550" width="40" height="20" as="geometry" />
        </mxCell>
        <mxCell id="J224VBJnsIR9nlnnaOz--27" value="" style="rounded=0;whiteSpace=wrap;html=1;labelBackgroundColor=none;sketch=0;fillColor=none;fontColor=#FFFFFF;" parent="-u7GObjVBjazYlyBJwz2-2" vertex="1">
          <mxGeometry x="70" y="550" width="20" height="20" as="geometry" />
        </mxCell>
        <mxCell id="J224VBJnsIR9nlnnaOz--28" value="&lt;font style=&quot;font-size: 21px&quot;&gt;Teachers&lt;/font&gt;" style="text;html=1;strokeColor=none;fillColor=none;align=center;verticalAlign=middle;whiteSpace=wrap;rounded=0;" parent="-u7GObjVBjazYlyBJwz2-2" vertex="1">
          <mxGeometry x="70" y="230" width="70" height="20" as="geometry" />
        </mxCell>
        <mxCell id="J224VBJnsIR9nlnnaOz--29" value="&lt;font style=&quot;font-size: 21px&quot;&gt;Students&lt;/font&gt;" style="text;html=1;strokeColor=none;fillColor=none;align=center;verticalAlign=middle;whiteSpace=wrap;rounded=0;" parent="-u7GObjVBjazYlyBJwz2-2" vertex="1">
          <mxGeometry x="72.5" y="470" width="55" height="20" as="geometry" />
        </mxCell>
        <mxCell id="J224VBJnsIR9nlnnaOz--37" value="&lt;font color=&quot;#000000&quot;&gt;Doe&lt;/font&gt;" style="text;html=1;strokeColor=none;fillColor=none;align=center;verticalAlign=middle;whiteSpace=wrap;rounded=0;labelBackgroundColor=none;sketch=0;fontColor=#FFFFFF;" parent="-u7GObjVBjazYlyBJwz2-2" vertex="1">
          <mxGeometry x="329" y="360" width="70" height="20" as="geometry" />
        </mxCell>
        <mxCell id="J224VBJnsIR9nlnnaOz--38" value="&lt;font color=&quot;#000000&quot;&gt;Jane&lt;/font&gt;" style="text;html=1;strokeColor=none;fillColor=none;align=center;verticalAlign=middle;whiteSpace=wrap;rounded=0;labelBackgroundColor=none;sketch=0;fontColor=#FFFFFF;" parent="-u7GObjVBjazYlyBJwz2-2" vertex="1">
          <mxGeometry x="222" y="360" width="70" height="20" as="geometry" />
        </mxCell>
        <mxCell id="J224VBJnsIR9nlnnaOz--39" value="1234567" style="text;html=1;strokeColor=none;fillColor=none;align=center;verticalAlign=middle;whiteSpace=wrap;rounded=0;" parent="-u7GObjVBjazYlyBJwz2-2" vertex="1">
          <mxGeometry x="131" y="360" width="40" height="20" as="geometry" />
        </mxCell>
        <mxCell id="J224VBJnsIR9nlnnaOz--40" value="" style="rounded=0;whiteSpace=wrap;html=1;labelBackgroundColor=none;sketch=0;fillColor=none;fontColor=#FFFFFF;" parent="-u7GObjVBjazYlyBJwz2-2" vertex="1">
          <mxGeometry x="75" y="360" width="20" height="20" as="geometry" />
        </mxCell>
        <mxCell id="H1D30TkiPpAwHZYMCP2H-0" value="Grade" style="text;html=1;strokeColor=none;fillColor=none;align=center;verticalAlign=middle;whiteSpace=wrap;rounded=0;" parent="-u7GObjVBjazYlyBJwz2-2" vertex="1">
          <mxGeometry x="490" y="510" width="40" height="20" as="geometry" />
        </mxCell>
        <mxCell id="H1D30TkiPpAwHZYMCP2H-1" value="100" style="text;html=1;strokeColor=none;fillColor=none;align=center;verticalAlign=middle;whiteSpace=wrap;rounded=0;" parent="-u7GObjVBjazYlyBJwz2-2" vertex="1">
          <mxGeometry x="490" y="550" width="40" height="20" as="geometry" />
        </mxCell>
        <mxCell id="H1D30TkiPpAwHZYMCP2H-2" value="&lt;font color=&quot;#000000&quot;&gt;Smith&lt;/font&gt;" style="text;html=1;strokeColor=none;fillColor=none;align=center;verticalAlign=middle;whiteSpace=wrap;rounded=0;labelBackgroundColor=none;sketch=0;fontColor=#FFFFFF;" parent="-u7GObjVBjazYlyBJwz2-2" vertex="1">
          <mxGeometry x="323" y="600" width="70" height="20" as="geometry" />
        </mxCell>
        <mxCell id="H1D30TkiPpAwHZYMCP2H-3" value="&lt;font color=&quot;#000000&quot;&gt;John&lt;/font&gt;" style="text;html=1;strokeColor=none;fillColor=none;align=center;verticalAlign=middle;whiteSpace=wrap;rounded=0;labelBackgroundColor=none;sketch=0;fontColor=#FFFFFF;" parent="-u7GObjVBjazYlyBJwz2-2" vertex="1">
          <mxGeometry x="216" y="600" width="70" height="20" as="geometry" />
        </mxCell>
        <mxCell id="H1D30TkiPpAwHZYMCP2H-4" value="1234567" style="text;html=1;strokeColor=none;fillColor=none;align=center;verticalAlign=middle;whiteSpace=wrap;rounded=0;" parent="-u7GObjVBjazYlyBJwz2-2" vertex="1">
          <mxGeometry x="125" y="600" width="40" height="20" as="geometry" />
        </mxCell>
        <mxCell id="H1D30TkiPpAwHZYMCP2H-5" value="" style="rounded=0;whiteSpace=wrap;html=1;labelBackgroundColor=none;sketch=0;fillColor=none;fontColor=#FFFFFF;" parent="-u7GObjVBjazYlyBJwz2-2" vertex="1">
          <mxGeometry x="70" y="600" width="20" height="20" as="geometry" />
        </mxCell>
        <mxCell id="H1D30TkiPpAwHZYMCP2H-6" value="75" style="text;html=1;strokeColor=none;fillColor=none;align=center;verticalAlign=middle;whiteSpace=wrap;rounded=0;" parent="-u7GObjVBjazYlyBJwz2-2" vertex="1">
          <mxGeometry x="490" y="600" width="40" height="20" as="geometry" />
        </mxCell>
        <mxCell id="H1D30TkiPpAwHZYMCP2H-7" value="&lt;font color=&quot;#000000&quot;&gt;Smith&lt;/font&gt;" style="text;html=1;strokeColor=none;fillColor=none;align=center;verticalAlign=middle;whiteSpace=wrap;rounded=0;labelBackgroundColor=none;sketch=0;fontColor=#FFFFFF;" parent="-u7GObjVBjazYlyBJwz2-2" vertex="1">
          <mxGeometry x="323" y="650" width="70" height="20" as="geometry" />
        </mxCell>
        <mxCell id="H1D30TkiPpAwHZYMCP2H-8" value="&lt;font color=&quot;#000000&quot;&gt;John&lt;/font&gt;" style="text;html=1;strokeColor=none;fillColor=none;align=center;verticalAlign=middle;whiteSpace=wrap;rounded=0;labelBackgroundColor=none;sketch=0;fontColor=#FFFFFF;" parent="-u7GObjVBjazYlyBJwz2-2" vertex="1">
          <mxGeometry x="216" y="650" width="70" height="20" as="geometry" />
        </mxCell>
        <mxCell id="H1D30TkiPpAwHZYMCP2H-9" value="1234567" style="text;html=1;strokeColor=none;fillColor=none;align=center;verticalAlign=middle;whiteSpace=wrap;rounded=0;" parent="-u7GObjVBjazYlyBJwz2-2" vertex="1">
          <mxGeometry x="125" y="650" width="40" height="20" as="geometry" />
        </mxCell>
        <mxCell id="H1D30TkiPpAwHZYMCP2H-10" value="" style="rounded=0;whiteSpace=wrap;html=1;labelBackgroundColor=none;sketch=0;fillColor=none;fontColor=#FFFFFF;" parent="-u7GObjVBjazYlyBJwz2-2" vertex="1">
          <mxGeometry x="70" y="650" width="20" height="20" as="geometry" />
        </mxCell>
        <mxCell id="H1D30TkiPpAwHZYMCP2H-11" value="86" style="text;html=1;strokeColor=none;fillColor=none;align=center;verticalAlign=middle;whiteSpace=wrap;rounded=0;" parent="-u7GObjVBjazYlyBJwz2-2" vertex="1">
          <mxGeometry x="490" y="650" width="40" height="20" as="geometry" />
        </mxCell>
        <mxCell id="H1D30TkiPpAwHZYMCP2H-12" value="&lt;font color=&quot;#000000&quot;&gt;Smith&lt;/font&gt;" style="text;html=1;strokeColor=none;fillColor=none;align=center;verticalAlign=middle;whiteSpace=wrap;rounded=0;labelBackgroundColor=none;sketch=0;fontColor=#FFFFFF;" parent="-u7GObjVBjazYlyBJwz2-2" vertex="1">
          <mxGeometry x="323" y="700" width="70" height="20" as="geometry" />
        </mxCell>
        <mxCell id="H1D30TkiPpAwHZYMCP2H-13" value="&lt;font color=&quot;#000000&quot;&gt;John&lt;/font&gt;" style="text;html=1;strokeColor=none;fillColor=none;align=center;verticalAlign=middle;whiteSpace=wrap;rounded=0;labelBackgroundColor=none;sketch=0;fontColor=#FFFFFF;" parent="-u7GObjVBjazYlyBJwz2-2" vertex="1">
          <mxGeometry x="216" y="700" width="70" height="20" as="geometry" />
        </mxCell>
        <mxCell id="H1D30TkiPpAwHZYMCP2H-14" value="1234567" style="text;html=1;strokeColor=none;fillColor=none;align=center;verticalAlign=middle;whiteSpace=wrap;rounded=0;" parent="-u7GObjVBjazYlyBJwz2-2" vertex="1">
          <mxGeometry x="125" y="700" width="40" height="20" as="geometry" />
        </mxCell>
        <mxCell id="H1D30TkiPpAwHZYMCP2H-15" value="" style="rounded=0;whiteSpace=wrap;html=1;labelBackgroundColor=none;sketch=0;fillColor=none;fontColor=#FFFFFF;" parent="-u7GObjVBjazYlyBJwz2-2" vertex="1">
          <mxGeometry x="70" y="700" width="20" height="20" as="geometry" />
        </mxCell>
        <mxCell id="H1D30TkiPpAwHZYMCP2H-16" value="42" style="text;html=1;strokeColor=none;fillColor=none;align=center;verticalAlign=middle;whiteSpace=wrap;rounded=0;" parent="-u7GObjVBjazYlyBJwz2-2" vertex="1">
          <mxGeometry x="490" y="700" width="40" height="20" as="geometry" />
        </mxCell>
        <mxCell id="H1D30TkiPpAwHZYMCP2H-17" value="&lt;font color=&quot;#000000&quot;&gt;Smith&lt;/font&gt;" style="text;html=1;strokeColor=none;fillColor=none;align=center;verticalAlign=middle;whiteSpace=wrap;rounded=0;labelBackgroundColor=none;sketch=0;fontColor=#FFFFFF;" parent="-u7GObjVBjazYlyBJwz2-2" vertex="1">
          <mxGeometry x="323" y="750" width="70" height="20" as="geometry" />
        </mxCell>
        <mxCell id="H1D30TkiPpAwHZYMCP2H-18" value="&lt;font color=&quot;#000000&quot;&gt;John&lt;/font&gt;" style="text;html=1;strokeColor=none;fillColor=none;align=center;verticalAlign=middle;whiteSpace=wrap;rounded=0;labelBackgroundColor=none;sketch=0;fontColor=#FFFFFF;" parent="-u7GObjVBjazYlyBJwz2-2" vertex="1">
          <mxGeometry x="216" y="750" width="70" height="20" as="geometry" />
        </mxCell>
        <mxCell id="H1D30TkiPpAwHZYMCP2H-19" value="1234567" style="text;html=1;strokeColor=none;fillColor=none;align=center;verticalAlign=middle;whiteSpace=wrap;rounded=0;" parent="-u7GObjVBjazYlyBJwz2-2" vertex="1">
          <mxGeometry x="125" y="750" width="40" height="20" as="geometry" />
        </mxCell>
        <mxCell id="H1D30TkiPpAwHZYMCP2H-20" value="" style="rounded=0;whiteSpace=wrap;html=1;labelBackgroundColor=none;sketch=0;fillColor=none;fontColor=#FFFFFF;" parent="-u7GObjVBjazYlyBJwz2-2" vertex="1">
          <mxGeometry x="70" y="750" width="20" height="20" as="geometry" />
        </mxCell>
        <mxCell id="H1D30TkiPpAwHZYMCP2H-21" value="58" style="text;html=1;strokeColor=none;fillColor=none;align=center;verticalAlign=middle;whiteSpace=wrap;rounded=0;" parent="-u7GObjVBjazYlyBJwz2-2" vertex="1">
          <mxGeometry x="490" y="750" width="40" height="20" as="geometry" />
        </mxCell>
        <mxCell id="H1D30TkiPpAwHZYMCP2H-22" value="Age" style="text;html=1;strokeColor=none;fillColor=none;align=center;verticalAlign=middle;whiteSpace=wrap;rounded=0;" parent="-u7GObjVBjazYlyBJwz2-2" vertex="1">
          <mxGeometry x="430" y="510" width="40" height="20" as="geometry" />
        </mxCell>
        <mxCell id="H1D30TkiPpAwHZYMCP2H-24" value="15" style="text;html=1;strokeColor=none;fillColor=none;align=center;verticalAlign=middle;whiteSpace=wrap;rounded=0;" parent="-u7GObjVBjazYlyBJwz2-2" vertex="1">
          <mxGeometry x="430" y="550" width="40" height="20" as="geometry" />
        </mxCell>
        <mxCell id="H1D30TkiPpAwHZYMCP2H-25" value="15" style="text;html=1;strokeColor=none;fillColor=none;align=center;verticalAlign=middle;whiteSpace=wrap;rounded=0;" parent="-u7GObjVBjazYlyBJwz2-2" vertex="1">
          <mxGeometry x="430" y="600" width="40" height="20" as="geometry" />
        </mxCell>
        <mxCell id="H1D30TkiPpAwHZYMCP2H-27" value="15" style="text;html=1;strokeColor=none;fillColor=none;align=center;verticalAlign=middle;whiteSpace=wrap;rounded=0;" parent="-u7GObjVBjazYlyBJwz2-2" vertex="1">
          <mxGeometry x="430" y="650" width="40" height="20" as="geometry" />
        </mxCell>
        <mxCell id="H1D30TkiPpAwHZYMCP2H-28" value="15" style="text;html=1;strokeColor=none;fillColor=none;align=center;verticalAlign=middle;whiteSpace=wrap;rounded=0;" parent="-u7GObjVBjazYlyBJwz2-2" vertex="1">
          <mxGeometry x="430" y="700" width="40" height="20" as="geometry" />
        </mxCell>
        <mxCell id="H1D30TkiPpAwHZYMCP2H-29" value="15" style="text;html=1;strokeColor=none;fillColor=none;align=center;verticalAlign=middle;whiteSpace=wrap;rounded=0;" parent="-u7GObjVBjazYlyBJwz2-2" vertex="1">
          <mxGeometry x="430" y="750" width="40" height="20" as="geometry" />
        </mxCell>
        <mxCell id="H1D30TkiPpAwHZYMCP2H-30" value="First Name" style="strokeWidth=1;shadow=0;dashed=0;align=center;html=1;shape=mxgraph.mockup.forms.comboBox;strokeColor=#999999;fillColor=#ddeeff;align=left;fillColor2=#aaddff;mainText=;fontColor=#666666;fontSize=17;spacingLeft=3;" parent="-u7GObjVBjazYlyBJwz2-2" vertex="1">
          <mxGeometry x="850" y="490" width="150" height="30" as="geometry" />
        </mxCell>
        <mxCell id="-u7GObjVBjazYlyBJwz2-25" value="" style="rounded=0;whiteSpace=wrap;html=1;labelBackgroundColor=none;sketch=0;fillColor=none;fontColor=#FFFFFF;" parent="-u7GObjVBjazYlyBJwz2-1" vertex="1">
          <mxGeometry x="1835" y="490" width="20" height="20" as="geometry" />
        </mxCell>
      </root>
    </mxGraphModel>
  </diagram>
  <diagram name="Admin Add Member" id="fJgevFxbx6oowQN_d2Cv">
    <mxGraphModel dx="-241" dy="784" grid="1" gridSize="10" guides="1" tooltips="1" connect="1" arrows="1" fold="1" page="1" pageScale="1" pageWidth="827" pageHeight="1169" math="0" shadow="0">
      <root>
        <mxCell id="35d8Bu5q2LD1LNqgx741-0" />
        <mxCell id="35d8Bu5q2LD1LNqgx741-1" parent="35d8Bu5q2LD1LNqgx741-0" />
        <mxCell id="35d8Bu5q2LD1LNqgx741-2" value="" style="strokeWidth=1;shadow=0;dashed=0;align=center;html=1;shape=mxgraph.mockup.containers.browserWindow;rSize=0;strokeColor2=#008cff;strokeColor3=#c4c4c4;mainText=,;recursiveResize=0;strokeColor=#FFFFFF;fontColor=#FFFFFF;" parent="35d8Bu5q2LD1LNqgx741-1" vertex="1">
          <mxGeometry x="1760" y="180" width="1110" height="1040" as="geometry" />
        </mxCell>
        <mxCell id="35d8Bu5q2LD1LNqgx741-3" value="Page 1" style="strokeWidth=1;shadow=0;dashed=0;align=center;html=1;shape=mxgraph.mockup.containers.anchor;fontSize=17;fontColor=#666666;align=left;" parent="35d8Bu5q2LD1LNqgx741-2" vertex="1">
          <mxGeometry x="60" y="12" width="110" height="26" as="geometry" />
        </mxCell>
        <mxCell id="35d8Bu5q2LD1LNqgx741-4" value="https://www.example.com/admin/session=abc1234/class=abc1234" style="strokeWidth=1;shadow=0;dashed=0;align=center;html=1;shape=mxgraph.mockup.containers.anchor;rSize=0;fontSize=17;fontColor=#666666;align=left;" parent="35d8Bu5q2LD1LNqgx741-2" vertex="1">
          <mxGeometry x="131" y="60" width="869" height="26" as="geometry" />
        </mxCell>
        <mxCell id="35d8Bu5q2LD1LNqgx741-5" value="&lt;font color=&quot;#000000&quot; style=&quot;font-size: 26px&quot;&gt;Python 1&lt;/font&gt;" style="text;html=1;strokeColor=none;fillColor=none;align=left;verticalAlign=middle;whiteSpace=wrap;rounded=0;labelBackgroundColor=none;sketch=0;fontColor=#FFFFFF;" parent="35d8Bu5q2LD1LNqgx741-2" vertex="1">
          <mxGeometry x="60" y="150" width="280" height="50" as="geometry" />
        </mxCell>
        <mxCell id="35d8Bu5q2LD1LNqgx741-6" value="&lt;font color=&quot;#000000&quot;&gt;First Name&lt;/font&gt;" style="text;html=1;strokeColor=none;fillColor=none;align=center;verticalAlign=middle;whiteSpace=wrap;rounded=0;labelBackgroundColor=none;sketch=0;fontColor=#FFFFFF;" parent="35d8Bu5q2LD1LNqgx741-2" vertex="1">
          <mxGeometry x="208.5" y="270" width="100" height="20" as="geometry" />
        </mxCell>
        <mxCell id="35d8Bu5q2LD1LNqgx741-7" value="&lt;font color=&quot;#000000&quot;&gt;Last Name&lt;/font&gt;" style="text;html=1;strokeColor=none;fillColor=none;align=center;verticalAlign=middle;whiteSpace=wrap;rounded=0;labelBackgroundColor=none;sketch=0;fontColor=#FFFFFF;" parent="35d8Bu5q2LD1LNqgx741-2" vertex="1">
          <mxGeometry x="331.5" y="270" width="70" height="20" as="geometry" />
        </mxCell>
        <mxCell id="35d8Bu5q2LD1LNqgx741-8" value="&lt;font color=&quot;#000000&quot;&gt;(+) Add Teacher&lt;/font&gt;" style="rounded=0;whiteSpace=wrap;html=1;labelBackgroundColor=none;sketch=0;fillColor=none;fontColor=#FFFFFF;align=center;" parent="35d8Bu5q2LD1LNqgx741-2" vertex="1">
          <mxGeometry x="65" y="400" width="940" height="40" as="geometry" />
        </mxCell>
        <mxCell id="35d8Bu5q2LD1LNqgx741-9" value="First Name" style="strokeWidth=1;shadow=0;dashed=0;align=center;html=1;shape=mxgraph.mockup.forms.comboBox;strokeColor=#999999;fillColor=#ddeeff;align=left;fillColor2=#aaddff;mainText=;fontColor=#666666;fontSize=17;spacingLeft=3;" parent="35d8Bu5q2LD1LNqgx741-2" vertex="1">
          <mxGeometry x="855" y="250" width="150" height="30" as="geometry" />
        </mxCell>
        <mxCell id="35d8Bu5q2LD1LNqgx741-10" value="" style="rounded=0;whiteSpace=wrap;html=1;labelBackgroundColor=none;sketch=0;fillColor=none;fontColor=#FFFFFF;align=left;" parent="35d8Bu5q2LD1LNqgx741-2" vertex="1">
          <mxGeometry x="65" y="300" width="940" height="40" as="geometry" />
        </mxCell>
        <mxCell id="35d8Bu5q2LD1LNqgx741-11" value="" style="rounded=0;whiteSpace=wrap;html=1;labelBackgroundColor=none;sketch=0;fillColor=none;fontColor=#FFFFFF;align=left;" parent="35d8Bu5q2LD1LNqgx741-2" vertex="1">
          <mxGeometry x="65" y="350" width="940" height="40" as="geometry" />
        </mxCell>
        <mxCell id="35d8Bu5q2LD1LNqgx741-12" value="&lt;font color=&quot;#000000&quot;&gt;Smith&lt;/font&gt;" style="text;html=1;strokeColor=none;fillColor=none;align=center;verticalAlign=middle;whiteSpace=wrap;rounded=0;labelBackgroundColor=none;sketch=0;fontColor=#FFFFFF;" parent="35d8Bu5q2LD1LNqgx741-2" vertex="1">
          <mxGeometry x="329" y="310" width="70" height="20" as="geometry" />
        </mxCell>
        <mxCell id="35d8Bu5q2LD1LNqgx741-13" value="&lt;font color=&quot;#000000&quot;&gt;Teacher ID&lt;/font&gt;" style="text;html=1;strokeColor=none;fillColor=none;align=center;verticalAlign=middle;whiteSpace=wrap;rounded=0;labelBackgroundColor=none;sketch=0;fontColor=#FFFFFF;" parent="35d8Bu5q2LD1LNqgx741-2" vertex="1">
          <mxGeometry x="112.5" y="270" width="80" height="20" as="geometry" />
        </mxCell>
        <mxCell id="35d8Bu5q2LD1LNqgx741-14" value="&lt;font color=&quot;#000000&quot;&gt;John&lt;/font&gt;" style="text;html=1;strokeColor=none;fillColor=none;align=center;verticalAlign=middle;whiteSpace=wrap;rounded=0;labelBackgroundColor=none;sketch=0;fontColor=#FFFFFF;" parent="35d8Bu5q2LD1LNqgx741-2" vertex="1">
          <mxGeometry x="222" y="310" width="70" height="20" as="geometry" />
        </mxCell>
        <mxCell id="35d8Bu5q2LD1LNqgx741-15" value="1234567" style="text;html=1;strokeColor=none;fillColor=none;align=center;verticalAlign=middle;whiteSpace=wrap;rounded=0;" parent="35d8Bu5q2LD1LNqgx741-2" vertex="1">
          <mxGeometry x="131" y="310" width="40" height="20" as="geometry" />
        </mxCell>
        <mxCell id="35d8Bu5q2LD1LNqgx741-16" value="&lt;font color=&quot;#000000&quot;&gt;First Name&lt;/font&gt;" style="text;html=1;strokeColor=none;fillColor=none;align=center;verticalAlign=middle;whiteSpace=wrap;rounded=0;labelBackgroundColor=none;sketch=0;fontColor=#FFFFFF;" parent="35d8Bu5q2LD1LNqgx741-2" vertex="1">
          <mxGeometry x="200" y="510" width="100" height="20" as="geometry" />
        </mxCell>
        <mxCell id="35d8Bu5q2LD1LNqgx741-17" value="&lt;font color=&quot;#000000&quot;&gt;Last Name&lt;/font&gt;" style="text;html=1;strokeColor=none;fillColor=none;align=center;verticalAlign=middle;whiteSpace=wrap;rounded=0;labelBackgroundColor=none;sketch=0;fontColor=#FFFFFF;" parent="35d8Bu5q2LD1LNqgx741-2" vertex="1">
          <mxGeometry x="323" y="510" width="70" height="20" as="geometry" />
        </mxCell>
        <mxCell id="35d8Bu5q2LD1LNqgx741-18" value="&lt;font color=&quot;#000000&quot;&gt;(+) Add Student&lt;/font&gt;" style="rounded=0;whiteSpace=wrap;html=1;labelBackgroundColor=none;sketch=0;fillColor=none;fontColor=#FFFFFF;align=center;" parent="35d8Bu5q2LD1LNqgx741-2" vertex="1">
          <mxGeometry x="60" y="790" width="940" height="40" as="geometry" />
        </mxCell>
        <mxCell id="35d8Bu5q2LD1LNqgx741-19" value="" style="rounded=0;whiteSpace=wrap;html=1;labelBackgroundColor=none;sketch=0;fillColor=none;fontColor=#FFFFFF;align=left;" parent="35d8Bu5q2LD1LNqgx741-2" vertex="1">
          <mxGeometry x="60" y="540" width="940" height="40" as="geometry" />
        </mxCell>
        <mxCell id="35d8Bu5q2LD1LNqgx741-20" value="" style="rounded=0;whiteSpace=wrap;html=1;labelBackgroundColor=none;sketch=0;fillColor=none;fontColor=#FFFFFF;align=left;" parent="35d8Bu5q2LD1LNqgx741-2" vertex="1">
          <mxGeometry x="60" y="590" width="940" height="40" as="geometry" />
        </mxCell>
        <mxCell id="35d8Bu5q2LD1LNqgx741-21" value="" style="rounded=0;whiteSpace=wrap;html=1;labelBackgroundColor=none;sketch=0;fillColor=none;fontColor=#FFFFFF;align=left;" parent="35d8Bu5q2LD1LNqgx741-2" vertex="1">
          <mxGeometry x="60" y="640" width="940" height="40" as="geometry" />
        </mxCell>
        <mxCell id="35d8Bu5q2LD1LNqgx741-22" value="" style="rounded=0;whiteSpace=wrap;html=1;labelBackgroundColor=none;sketch=0;fillColor=none;fontColor=#FFFFFF;align=left;" parent="35d8Bu5q2LD1LNqgx741-2" vertex="1">
          <mxGeometry x="60" y="690" width="940" height="40" as="geometry" />
        </mxCell>
        <mxCell id="35d8Bu5q2LD1LNqgx741-23" value="" style="rounded=0;whiteSpace=wrap;html=1;labelBackgroundColor=none;sketch=0;fillColor=none;fontColor=#FFFFFF;align=left;" parent="35d8Bu5q2LD1LNqgx741-2" vertex="1">
          <mxGeometry x="60" y="740" width="940" height="40" as="geometry" />
        </mxCell>
        <mxCell id="35d8Bu5q2LD1LNqgx741-24" value="&lt;font color=&quot;#000000&quot;&gt;Smith&lt;/font&gt;" style="text;html=1;strokeColor=none;fillColor=none;align=center;verticalAlign=middle;whiteSpace=wrap;rounded=0;labelBackgroundColor=none;sketch=0;fontColor=#FFFFFF;" parent="35d8Bu5q2LD1LNqgx741-2" vertex="1">
          <mxGeometry x="323" y="550" width="70" height="20" as="geometry" />
        </mxCell>
        <mxCell id="35d8Bu5q2LD1LNqgx741-25" value="&lt;font color=&quot;#000000&quot;&gt;Student ID&lt;/font&gt;" style="text;html=1;strokeColor=none;fillColor=none;align=center;verticalAlign=middle;whiteSpace=wrap;rounded=0;labelBackgroundColor=none;sketch=0;fontColor=#FFFFFF;" parent="35d8Bu5q2LD1LNqgx741-2" vertex="1">
          <mxGeometry x="104" y="510" width="80" height="20" as="geometry" />
        </mxCell>
        <mxCell id="35d8Bu5q2LD1LNqgx741-26" value="&lt;font color=&quot;#000000&quot;&gt;John&lt;/font&gt;" style="text;html=1;strokeColor=none;fillColor=none;align=center;verticalAlign=middle;whiteSpace=wrap;rounded=0;labelBackgroundColor=none;sketch=0;fontColor=#FFFFFF;" parent="35d8Bu5q2LD1LNqgx741-2" vertex="1">
          <mxGeometry x="216" y="550" width="70" height="20" as="geometry" />
        </mxCell>
        <mxCell id="35d8Bu5q2LD1LNqgx741-27" value="1234567" style="text;html=1;strokeColor=none;fillColor=none;align=center;verticalAlign=middle;whiteSpace=wrap;rounded=0;" parent="35d8Bu5q2LD1LNqgx741-2" vertex="1">
          <mxGeometry x="125" y="550" width="40" height="20" as="geometry" />
        </mxCell>
        <mxCell id="35d8Bu5q2LD1LNqgx741-28" value="" style="rounded=0;whiteSpace=wrap;html=1;labelBackgroundColor=none;sketch=0;fillColor=none;fontColor=#FFFFFF;" parent="35d8Bu5q2LD1LNqgx741-2" vertex="1">
          <mxGeometry x="70" y="550" width="20" height="20" as="geometry" />
        </mxCell>
        <mxCell id="35d8Bu5q2LD1LNqgx741-29" value="&lt;font style=&quot;font-size: 21px&quot;&gt;Teachers&lt;/font&gt;" style="text;html=1;strokeColor=none;fillColor=none;align=center;verticalAlign=middle;whiteSpace=wrap;rounded=0;" parent="35d8Bu5q2LD1LNqgx741-2" vertex="1">
          <mxGeometry x="70" y="230" width="70" height="20" as="geometry" />
        </mxCell>
        <mxCell id="35d8Bu5q2LD1LNqgx741-30" value="&lt;font style=&quot;font-size: 21px&quot;&gt;Students&lt;/font&gt;" style="text;html=1;strokeColor=none;fillColor=none;align=center;verticalAlign=middle;whiteSpace=wrap;rounded=0;" parent="35d8Bu5q2LD1LNqgx741-2" vertex="1">
          <mxGeometry x="72.5" y="470" width="55" height="20" as="geometry" />
        </mxCell>
        <mxCell id="35d8Bu5q2LD1LNqgx741-31" value="&lt;font color=&quot;#000000&quot;&gt;Doe&lt;/font&gt;" style="text;html=1;strokeColor=none;fillColor=none;align=center;verticalAlign=middle;whiteSpace=wrap;rounded=0;labelBackgroundColor=none;sketch=0;fontColor=#FFFFFF;" parent="35d8Bu5q2LD1LNqgx741-2" vertex="1">
          <mxGeometry x="329" y="360" width="70" height="20" as="geometry" />
        </mxCell>
        <mxCell id="35d8Bu5q2LD1LNqgx741-32" value="&lt;font color=&quot;#000000&quot;&gt;Jane&lt;/font&gt;" style="text;html=1;strokeColor=none;fillColor=none;align=center;verticalAlign=middle;whiteSpace=wrap;rounded=0;labelBackgroundColor=none;sketch=0;fontColor=#FFFFFF;" parent="35d8Bu5q2LD1LNqgx741-2" vertex="1">
          <mxGeometry x="222" y="360" width="70" height="20" as="geometry" />
        </mxCell>
        <mxCell id="35d8Bu5q2LD1LNqgx741-33" value="1234567" style="text;html=1;strokeColor=none;fillColor=none;align=center;verticalAlign=middle;whiteSpace=wrap;rounded=0;" parent="35d8Bu5q2LD1LNqgx741-2" vertex="1">
          <mxGeometry x="131" y="360" width="40" height="20" as="geometry" />
        </mxCell>
        <mxCell id="35d8Bu5q2LD1LNqgx741-34" value="" style="rounded=0;whiteSpace=wrap;html=1;labelBackgroundColor=none;sketch=0;fillColor=none;fontColor=#FFFFFF;" parent="35d8Bu5q2LD1LNqgx741-2" vertex="1">
          <mxGeometry x="75" y="360" width="20" height="20" as="geometry" />
        </mxCell>
        <mxCell id="35d8Bu5q2LD1LNqgx741-35" value="Grade" style="text;html=1;strokeColor=none;fillColor=none;align=center;verticalAlign=middle;whiteSpace=wrap;rounded=0;" parent="35d8Bu5q2LD1LNqgx741-2" vertex="1">
          <mxGeometry x="490" y="510" width="40" height="20" as="geometry" />
        </mxCell>
        <mxCell id="35d8Bu5q2LD1LNqgx741-36" value="100" style="text;html=1;strokeColor=none;fillColor=none;align=center;verticalAlign=middle;whiteSpace=wrap;rounded=0;" parent="35d8Bu5q2LD1LNqgx741-2" vertex="1">
          <mxGeometry x="490" y="550" width="40" height="20" as="geometry" />
        </mxCell>
        <mxCell id="35d8Bu5q2LD1LNqgx741-37" value="&lt;font color=&quot;#000000&quot;&gt;Smith&lt;/font&gt;" style="text;html=1;strokeColor=none;fillColor=none;align=center;verticalAlign=middle;whiteSpace=wrap;rounded=0;labelBackgroundColor=none;sketch=0;fontColor=#FFFFFF;" parent="35d8Bu5q2LD1LNqgx741-2" vertex="1">
          <mxGeometry x="323" y="600" width="70" height="20" as="geometry" />
        </mxCell>
        <mxCell id="35d8Bu5q2LD1LNqgx741-38" value="&lt;font color=&quot;#000000&quot;&gt;John&lt;/font&gt;" style="text;html=1;strokeColor=none;fillColor=none;align=center;verticalAlign=middle;whiteSpace=wrap;rounded=0;labelBackgroundColor=none;sketch=0;fontColor=#FFFFFF;" parent="35d8Bu5q2LD1LNqgx741-2" vertex="1">
          <mxGeometry x="216" y="600" width="70" height="20" as="geometry" />
        </mxCell>
        <mxCell id="35d8Bu5q2LD1LNqgx741-39" value="1234567" style="text;html=1;strokeColor=none;fillColor=none;align=center;verticalAlign=middle;whiteSpace=wrap;rounded=0;" parent="35d8Bu5q2LD1LNqgx741-2" vertex="1">
          <mxGeometry x="125" y="600" width="40" height="20" as="geometry" />
        </mxCell>
        <mxCell id="35d8Bu5q2LD1LNqgx741-40" value="" style="rounded=0;whiteSpace=wrap;html=1;labelBackgroundColor=none;sketch=0;fillColor=none;fontColor=#FFFFFF;" parent="35d8Bu5q2LD1LNqgx741-2" vertex="1">
          <mxGeometry x="70" y="600" width="20" height="20" as="geometry" />
        </mxCell>
        <mxCell id="35d8Bu5q2LD1LNqgx741-41" value="75" style="text;html=1;strokeColor=none;fillColor=none;align=center;verticalAlign=middle;whiteSpace=wrap;rounded=0;" parent="35d8Bu5q2LD1LNqgx741-2" vertex="1">
          <mxGeometry x="490" y="600" width="40" height="20" as="geometry" />
        </mxCell>
        <mxCell id="35d8Bu5q2LD1LNqgx741-42" value="&lt;font color=&quot;#000000&quot;&gt;Smith&lt;/font&gt;" style="text;html=1;strokeColor=none;fillColor=none;align=center;verticalAlign=middle;whiteSpace=wrap;rounded=0;labelBackgroundColor=none;sketch=0;fontColor=#FFFFFF;" parent="35d8Bu5q2LD1LNqgx741-2" vertex="1">
          <mxGeometry x="323" y="650" width="70" height="20" as="geometry" />
        </mxCell>
        <mxCell id="35d8Bu5q2LD1LNqgx741-43" value="&lt;font color=&quot;#000000&quot;&gt;John&lt;/font&gt;" style="text;html=1;strokeColor=none;fillColor=none;align=center;verticalAlign=middle;whiteSpace=wrap;rounded=0;labelBackgroundColor=none;sketch=0;fontColor=#FFFFFF;" parent="35d8Bu5q2LD1LNqgx741-2" vertex="1">
          <mxGeometry x="216" y="650" width="70" height="20" as="geometry" />
        </mxCell>
        <mxCell id="35d8Bu5q2LD1LNqgx741-44" value="1234567" style="text;html=1;strokeColor=none;fillColor=none;align=center;verticalAlign=middle;whiteSpace=wrap;rounded=0;" parent="35d8Bu5q2LD1LNqgx741-2" vertex="1">
          <mxGeometry x="125" y="650" width="40" height="20" as="geometry" />
        </mxCell>
        <mxCell id="35d8Bu5q2LD1LNqgx741-45" value="" style="rounded=0;whiteSpace=wrap;html=1;labelBackgroundColor=none;sketch=0;fillColor=none;fontColor=#FFFFFF;" parent="35d8Bu5q2LD1LNqgx741-2" vertex="1">
          <mxGeometry x="70" y="650" width="20" height="20" as="geometry" />
        </mxCell>
        <mxCell id="35d8Bu5q2LD1LNqgx741-46" value="86" style="text;html=1;strokeColor=none;fillColor=none;align=center;verticalAlign=middle;whiteSpace=wrap;rounded=0;" parent="35d8Bu5q2LD1LNqgx741-2" vertex="1">
          <mxGeometry x="490" y="650" width="40" height="20" as="geometry" />
        </mxCell>
        <mxCell id="35d8Bu5q2LD1LNqgx741-47" value="&lt;font color=&quot;#000000&quot;&gt;Smith&lt;/font&gt;" style="text;html=1;strokeColor=none;fillColor=none;align=center;verticalAlign=middle;whiteSpace=wrap;rounded=0;labelBackgroundColor=none;sketch=0;fontColor=#FFFFFF;" parent="35d8Bu5q2LD1LNqgx741-2" vertex="1">
          <mxGeometry x="323" y="700" width="70" height="20" as="geometry" />
        </mxCell>
        <mxCell id="35d8Bu5q2LD1LNqgx741-48" value="&lt;font color=&quot;#000000&quot;&gt;John&lt;/font&gt;" style="text;html=1;strokeColor=none;fillColor=none;align=center;verticalAlign=middle;whiteSpace=wrap;rounded=0;labelBackgroundColor=none;sketch=0;fontColor=#FFFFFF;" parent="35d8Bu5q2LD1LNqgx741-2" vertex="1">
          <mxGeometry x="216" y="700" width="70" height="20" as="geometry" />
        </mxCell>
        <mxCell id="35d8Bu5q2LD1LNqgx741-49" value="1234567" style="text;html=1;strokeColor=none;fillColor=none;align=center;verticalAlign=middle;whiteSpace=wrap;rounded=0;" parent="35d8Bu5q2LD1LNqgx741-2" vertex="1">
          <mxGeometry x="125" y="700" width="40" height="20" as="geometry" />
        </mxCell>
        <mxCell id="35d8Bu5q2LD1LNqgx741-50" value="" style="rounded=0;whiteSpace=wrap;html=1;labelBackgroundColor=none;sketch=0;fillColor=none;fontColor=#FFFFFF;" parent="35d8Bu5q2LD1LNqgx741-2" vertex="1">
          <mxGeometry x="70" y="700" width="20" height="20" as="geometry" />
        </mxCell>
        <mxCell id="35d8Bu5q2LD1LNqgx741-51" value="42" style="text;html=1;strokeColor=none;fillColor=none;align=center;verticalAlign=middle;whiteSpace=wrap;rounded=0;" parent="35d8Bu5q2LD1LNqgx741-2" vertex="1">
          <mxGeometry x="490" y="700" width="40" height="20" as="geometry" />
        </mxCell>
        <mxCell id="35d8Bu5q2LD1LNqgx741-52" value="&lt;font color=&quot;#000000&quot;&gt;Smith&lt;/font&gt;" style="text;html=1;strokeColor=none;fillColor=none;align=center;verticalAlign=middle;whiteSpace=wrap;rounded=0;labelBackgroundColor=none;sketch=0;fontColor=#FFFFFF;" parent="35d8Bu5q2LD1LNqgx741-2" vertex="1">
          <mxGeometry x="323" y="750" width="70" height="20" as="geometry" />
        </mxCell>
        <mxCell id="35d8Bu5q2LD1LNqgx741-53" value="&lt;font color=&quot;#000000&quot;&gt;John&lt;/font&gt;" style="text;html=1;strokeColor=none;fillColor=none;align=center;verticalAlign=middle;whiteSpace=wrap;rounded=0;labelBackgroundColor=none;sketch=0;fontColor=#FFFFFF;" parent="35d8Bu5q2LD1LNqgx741-2" vertex="1">
          <mxGeometry x="216" y="750" width="70" height="20" as="geometry" />
        </mxCell>
        <mxCell id="35d8Bu5q2LD1LNqgx741-54" value="1234567" style="text;html=1;strokeColor=none;fillColor=none;align=center;verticalAlign=middle;whiteSpace=wrap;rounded=0;" parent="35d8Bu5q2LD1LNqgx741-2" vertex="1">
          <mxGeometry x="125" y="750" width="40" height="20" as="geometry" />
        </mxCell>
        <mxCell id="35d8Bu5q2LD1LNqgx741-55" value="" style="rounded=0;whiteSpace=wrap;html=1;labelBackgroundColor=none;sketch=0;fillColor=none;fontColor=#FFFFFF;" parent="35d8Bu5q2LD1LNqgx741-2" vertex="1">
          <mxGeometry x="70" y="750" width="20" height="20" as="geometry" />
        </mxCell>
        <mxCell id="35d8Bu5q2LD1LNqgx741-56" value="58" style="text;html=1;strokeColor=none;fillColor=none;align=center;verticalAlign=middle;whiteSpace=wrap;rounded=0;" parent="35d8Bu5q2LD1LNqgx741-2" vertex="1">
          <mxGeometry x="490" y="750" width="40" height="20" as="geometry" />
        </mxCell>
        <mxCell id="35d8Bu5q2LD1LNqgx741-57" value="Age" style="text;html=1;strokeColor=none;fillColor=none;align=center;verticalAlign=middle;whiteSpace=wrap;rounded=0;" parent="35d8Bu5q2LD1LNqgx741-2" vertex="1">
          <mxGeometry x="430" y="510" width="40" height="20" as="geometry" />
        </mxCell>
        <mxCell id="35d8Bu5q2LD1LNqgx741-58" value="15" style="text;html=1;strokeColor=none;fillColor=none;align=center;verticalAlign=middle;whiteSpace=wrap;rounded=0;" parent="35d8Bu5q2LD1LNqgx741-2" vertex="1">
          <mxGeometry x="430" y="550" width="40" height="20" as="geometry" />
        </mxCell>
        <mxCell id="35d8Bu5q2LD1LNqgx741-59" value="15" style="text;html=1;strokeColor=none;fillColor=none;align=center;verticalAlign=middle;whiteSpace=wrap;rounded=0;" parent="35d8Bu5q2LD1LNqgx741-2" vertex="1">
          <mxGeometry x="430" y="600" width="40" height="20" as="geometry" />
        </mxCell>
        <mxCell id="35d8Bu5q2LD1LNqgx741-60" value="15" style="text;html=1;strokeColor=none;fillColor=none;align=center;verticalAlign=middle;whiteSpace=wrap;rounded=0;" parent="35d8Bu5q2LD1LNqgx741-2" vertex="1">
          <mxGeometry x="430" y="650" width="40" height="20" as="geometry" />
        </mxCell>
        <mxCell id="35d8Bu5q2LD1LNqgx741-61" value="15" style="text;html=1;strokeColor=none;fillColor=none;align=center;verticalAlign=middle;whiteSpace=wrap;rounded=0;" parent="35d8Bu5q2LD1LNqgx741-2" vertex="1">
          <mxGeometry x="430" y="700" width="40" height="20" as="geometry" />
        </mxCell>
        <mxCell id="35d8Bu5q2LD1LNqgx741-62" value="15" style="text;html=1;strokeColor=none;fillColor=none;align=center;verticalAlign=middle;whiteSpace=wrap;rounded=0;" parent="35d8Bu5q2LD1LNqgx741-2" vertex="1">
          <mxGeometry x="430" y="750" width="40" height="20" as="geometry" />
        </mxCell>
        <mxCell id="35d8Bu5q2LD1LNqgx741-63" value="First Name" style="strokeWidth=1;shadow=0;dashed=0;align=center;html=1;shape=mxgraph.mockup.forms.comboBox;strokeColor=#999999;fillColor=#ddeeff;align=left;fillColor2=#aaddff;mainText=;fontColor=#666666;fontSize=17;spacingLeft=3;" parent="35d8Bu5q2LD1LNqgx741-2" vertex="1">
          <mxGeometry x="850" y="490" width="150" height="30" as="geometry" />
        </mxCell>
        <mxCell id="pqokOG6g3J6Mvslivvhd-0" value="" style="rounded=0;whiteSpace=wrap;html=1;" parent="35d8Bu5q2LD1LNqgx741-2" vertex="1">
          <mxGeometry x="315" y="405" width="495" height="155" as="geometry" />
        </mxCell>
        <mxCell id="pqokOG6g3J6Mvslivvhd-1" value="&lt;h1&gt;Add a Teacher&lt;/h1&gt;&lt;p&gt;&lt;br&gt;&lt;/p&gt;" style="text;html=1;strokeColor=none;fillColor=none;spacing=5;spacingTop=-20;whiteSpace=wrap;overflow=hidden;rounded=0;" parent="35d8Bu5q2LD1LNqgx741-2" vertex="1">
          <mxGeometry x="347.5" y="430" width="195" height="40" as="geometry" />
        </mxCell>
        <mxCell id="gn5Yl4eh_x83YHqxU96x-0" value="Search" style="strokeWidth=1;shadow=0;dashed=0;align=center;html=1;shape=mxgraph.mockup.forms.searchBox;strokeColor=#999999;mainText=;strokeColor2=#008cff;fontColor=#666666;fontSize=17;align=left;spacingLeft=3;" parent="35d8Bu5q2LD1LNqgx741-2" vertex="1">
          <mxGeometry x="347.5" y="490" width="415" height="30" as="geometry" />
        </mxCell>
        <mxCell id="35d8Bu5q2LD1LNqgx741-64" value="" style="rounded=0;whiteSpace=wrap;html=1;labelBackgroundColor=none;sketch=0;fillColor=none;fontColor=#FFFFFF;" parent="35d8Bu5q2LD1LNqgx741-1" vertex="1">
          <mxGeometry x="1835" y="490" width="20" height="20" as="geometry" />
        </mxCell>
      </root>
    </mxGraphModel>
  </diagram>
  <diagram name="Admin Teacher" id="F-hKwnwktnaXwKKcwNxf">
    <mxGraphModel dx="-241" dy="784" grid="1" gridSize="10" guides="1" tooltips="1" connect="1" arrows="1" fold="1" page="1" pageScale="1" pageWidth="827" pageHeight="1169" math="0" shadow="0">
      <root>
        <mxCell id="ZGewOakEupICLlYuwEGB-0" />
        <mxCell id="ZGewOakEupICLlYuwEGB-1" parent="ZGewOakEupICLlYuwEGB-0" />
        <mxCell id="ZGewOakEupICLlYuwEGB-2" value="" style="strokeWidth=1;shadow=0;dashed=0;align=center;html=1;shape=mxgraph.mockup.containers.browserWindow;rSize=0;strokeColor2=#008cff;strokeColor3=#c4c4c4;mainText=,;recursiveResize=0;strokeColor=#FFFFFF;fontColor=#FFFFFF;" parent="ZGewOakEupICLlYuwEGB-1" vertex="1">
          <mxGeometry x="1760" y="180" width="1110" height="1040" as="geometry" />
        </mxCell>
        <mxCell id="ZGewOakEupICLlYuwEGB-3" value="Page 1" style="strokeWidth=1;shadow=0;dashed=0;align=center;html=1;shape=mxgraph.mockup.containers.anchor;fontSize=17;fontColor=#666666;align=left;" parent="ZGewOakEupICLlYuwEGB-2" vertex="1">
          <mxGeometry x="60" y="12" width="110" height="26" as="geometry" />
        </mxCell>
        <mxCell id="ZGewOakEupICLlYuwEGB-4" value="https://www.example.com/admin/session=abc1234/class=abc1234" style="strokeWidth=1;shadow=0;dashed=0;align=center;html=1;shape=mxgraph.mockup.containers.anchor;rSize=0;fontSize=17;fontColor=#666666;align=left;" parent="ZGewOakEupICLlYuwEGB-2" vertex="1">
          <mxGeometry x="131" y="60" width="869" height="26" as="geometry" />
        </mxCell>
        <mxCell id="ZGewOakEupICLlYuwEGB-5" value="&lt;font color=&quot;#000000&quot; style=&quot;font-size: 26px&quot;&gt;John Smith&lt;/font&gt;" style="text;html=1;strokeColor=none;fillColor=none;align=left;verticalAlign=middle;whiteSpace=wrap;rounded=0;labelBackgroundColor=none;sketch=0;fontColor=#FFFFFF;" parent="ZGewOakEupICLlYuwEGB-2" vertex="1">
          <mxGeometry x="360" y="160" width="280" height="50" as="geometry" />
        </mxCell>
        <mxCell id="iK7DjL50EkcLacA9uPfD-0" value="" style="verticalLabelPosition=bottom;shadow=0;dashed=0;align=center;html=1;verticalAlign=top;strokeWidth=1;shape=mxgraph.mockup.containers.userMale;strokeColor=#666666;strokeColor2=#008cff;" vertex="1" parent="ZGewOakEupICLlYuwEGB-2">
          <mxGeometry x="73" y="160" width="247" height="250" as="geometry" />
        </mxCell>
        <mxCell id="iK7DjL50EkcLacA9uPfD-1" value="&lt;font style=&quot;font-size: 21px&quot;&gt;Currently Courses&lt;/font&gt;" style="text;html=1;strokeColor=none;fillColor=none;align=left;verticalAlign=middle;whiteSpace=wrap;rounded=0;" vertex="1" parent="ZGewOakEupICLlYuwEGB-2">
          <mxGeometry x="360" y="230" width="240" height="20" as="geometry" />
        </mxCell>
        <mxCell id="qor_EslFs9NajbH0scnT-26" value="&lt;span style=&quot;font-size: 21px&quot;&gt;Past Courses&lt;/span&gt;" style="text;html=1;strokeColor=none;fillColor=none;align=left;verticalAlign=middle;whiteSpace=wrap;rounded=0;" vertex="1" parent="ZGewOakEupICLlYuwEGB-2">
          <mxGeometry x="360" y="540" width="240" height="20" as="geometry" />
        </mxCell>
        <mxCell id="qor_EslFs9NajbH0scnT-27" value="" style="rounded=0;whiteSpace=wrap;html=1;labelBackgroundColor=none;sketch=0;fillColor=none;fontColor=#FFFFFF;align=left;" vertex="1" parent="ZGewOakEupICLlYuwEGB-2">
          <mxGeometry x="360" y="580" width="610" height="40" as="geometry" />
        </mxCell>
        <mxCell id="qor_EslFs9NajbH0scnT-28" value="&lt;font color=&quot;#000000&quot;&gt;ABC1234&lt;/font&gt;" style="text;html=1;strokeColor=none;fillColor=none;align=center;verticalAlign=middle;whiteSpace=wrap;rounded=0;labelBackgroundColor=none;sketch=0;fontColor=#FFFFFF;" vertex="1" parent="ZGewOakEupICLlYuwEGB-2">
          <mxGeometry x="415" y="590" width="50" height="20" as="geometry" />
        </mxCell>
        <mxCell id="qor_EslFs9NajbH0scnT-29" value="" style="rounded=0;whiteSpace=wrap;html=1;labelBackgroundColor=none;sketch=0;fillColor=none;fontColor=#FFFFFF;align=left;" vertex="1" parent="ZGewOakEupICLlYuwEGB-2">
          <mxGeometry x="360" y="630" width="610" height="40" as="geometry" />
        </mxCell>
        <mxCell id="qor_EslFs9NajbH0scnT-30" value="" style="rounded=0;whiteSpace=wrap;html=1;labelBackgroundColor=none;sketch=0;fillColor=none;fontColor=#FFFFFF;align=left;" vertex="1" parent="ZGewOakEupICLlYuwEGB-2">
          <mxGeometry x="360" y="680" width="610" height="40" as="geometry" />
        </mxCell>
        <mxCell id="qor_EslFs9NajbH0scnT-31" value="" style="rounded=0;whiteSpace=wrap;html=1;labelBackgroundColor=none;sketch=0;fillColor=none;fontColor=#FFFFFF;align=left;" vertex="1" parent="ZGewOakEupICLlYuwEGB-2">
          <mxGeometry x="360" y="730" width="610" height="40" as="geometry" />
        </mxCell>
        <mxCell id="qor_EslFs9NajbH0scnT-32" value="" style="rounded=0;whiteSpace=wrap;html=1;labelBackgroundColor=none;sketch=0;fillColor=none;fontColor=#FFFFFF;align=left;" vertex="1" parent="ZGewOakEupICLlYuwEGB-2">
          <mxGeometry x="360" y="780" width="610" height="40" as="geometry" />
        </mxCell>
        <mxCell id="qor_EslFs9NajbH0scnT-33" value="&lt;font color=&quot;#000000&quot;&gt;ABC1234&lt;/font&gt;" style="text;html=1;strokeColor=none;fillColor=none;align=center;verticalAlign=middle;whiteSpace=wrap;rounded=0;labelBackgroundColor=none;sketch=0;fontColor=#FFFFFF;" vertex="1" parent="ZGewOakEupICLlYuwEGB-2">
          <mxGeometry x="415" y="640" width="50" height="20" as="geometry" />
        </mxCell>
        <mxCell id="qor_EslFs9NajbH0scnT-34" value="&lt;font color=&quot;#000000&quot;&gt;ABC1234&lt;/font&gt;" style="text;html=1;strokeColor=none;fillColor=none;align=center;verticalAlign=middle;whiteSpace=wrap;rounded=0;labelBackgroundColor=none;sketch=0;fontColor=#FFFFFF;" vertex="1" parent="ZGewOakEupICLlYuwEGB-2">
          <mxGeometry x="415" y="690" width="50" height="20" as="geometry" />
        </mxCell>
        <mxCell id="qor_EslFs9NajbH0scnT-35" value="&lt;font color=&quot;#000000&quot;&gt;ABC1234&lt;/font&gt;" style="text;html=1;strokeColor=none;fillColor=none;align=center;verticalAlign=middle;whiteSpace=wrap;rounded=0;labelBackgroundColor=none;sketch=0;fontColor=#FFFFFF;" vertex="1" parent="ZGewOakEupICLlYuwEGB-2">
          <mxGeometry x="415" y="740" width="50" height="20" as="geometry" />
        </mxCell>
        <mxCell id="qor_EslFs9NajbH0scnT-36" value="&lt;font color=&quot;#000000&quot;&gt;ABC1234&lt;/font&gt;" style="text;html=1;strokeColor=none;fillColor=none;align=center;verticalAlign=middle;whiteSpace=wrap;rounded=0;labelBackgroundColor=none;sketch=0;fontColor=#FFFFFF;" vertex="1" parent="ZGewOakEupICLlYuwEGB-2">
          <mxGeometry x="415" y="790" width="50" height="20" as="geometry" />
        </mxCell>
        <mxCell id="qor_EslFs9NajbH0scnT-37" value="&lt;font color=&quot;#000000&quot;&gt;Python I&lt;/font&gt;" style="text;html=1;strokeColor=none;fillColor=none;align=center;verticalAlign=middle;whiteSpace=wrap;rounded=0;labelBackgroundColor=none;sketch=0;fontColor=#FFFFFF;" vertex="1" parent="ZGewOakEupICLlYuwEGB-2">
          <mxGeometry x="515" y="590" width="50" height="20" as="geometry" />
        </mxCell>
        <mxCell id="qor_EslFs9NajbH0scnT-38" value="&lt;font color=&quot;#000000&quot;&gt;Html I&lt;/font&gt;" style="text;html=1;strokeColor=none;fillColor=none;align=center;verticalAlign=middle;whiteSpace=wrap;rounded=0;labelBackgroundColor=none;sketch=0;fontColor=#FFFFFF;" vertex="1" parent="ZGewOakEupICLlYuwEGB-2">
          <mxGeometry x="505" y="640" width="70" height="20" as="geometry" />
        </mxCell>
        <mxCell id="qor_EslFs9NajbH0scnT-39" value="&lt;font color=&quot;#000000&quot;&gt;Html II&lt;/font&gt;" style="text;html=1;strokeColor=none;fillColor=none;align=center;verticalAlign=middle;whiteSpace=wrap;rounded=0;labelBackgroundColor=none;sketch=0;fontColor=#FFFFFF;" vertex="1" parent="ZGewOakEupICLlYuwEGB-2">
          <mxGeometry x="515" y="690" width="50" height="20" as="geometry" />
        </mxCell>
        <mxCell id="qor_EslFs9NajbH0scnT-40" value="&lt;font color=&quot;#000000&quot;&gt;Java I&lt;/font&gt;" style="text;html=1;strokeColor=none;fillColor=none;align=center;verticalAlign=middle;whiteSpace=wrap;rounded=0;labelBackgroundColor=none;sketch=0;fontColor=#FFFFFF;" vertex="1" parent="ZGewOakEupICLlYuwEGB-2">
          <mxGeometry x="515" y="740" width="50" height="20" as="geometry" />
        </mxCell>
        <mxCell id="qor_EslFs9NajbH0scnT-41" value="&lt;font color=&quot;#000000&quot;&gt;Java II&lt;/font&gt;" style="text;html=1;strokeColor=none;fillColor=none;align=center;verticalAlign=middle;whiteSpace=wrap;rounded=0;labelBackgroundColor=none;sketch=0;fontColor=#FFFFFF;" vertex="1" parent="ZGewOakEupICLlYuwEGB-2">
          <mxGeometry x="515" y="790" width="50" height="20" as="geometry" />
        </mxCell>
        <mxCell id="qor_EslFs9NajbH0scnT-42" value="&lt;font color=&quot;#000000&quot;&gt;Professor A, Assistant B&lt;/font&gt;" style="text;html=1;strokeColor=none;fillColor=none;align=left;verticalAlign=middle;whiteSpace=wrap;rounded=0;labelBackgroundColor=none;sketch=0;fontColor=#FFFFFF;" vertex="1" parent="ZGewOakEupICLlYuwEGB-2">
          <mxGeometry x="620" y="590" width="150" height="20" as="geometry" />
        </mxCell>
        <mxCell id="qor_EslFs9NajbH0scnT-43" value="&lt;font color=&quot;#000000&quot;&gt;Professor A, Assistant B&lt;/font&gt;" style="text;html=1;strokeColor=none;fillColor=none;align=left;verticalAlign=middle;whiteSpace=wrap;rounded=0;labelBackgroundColor=none;sketch=0;fontColor=#FFFFFF;" vertex="1" parent="ZGewOakEupICLlYuwEGB-2">
          <mxGeometry x="620" y="640" width="150" height="20" as="geometry" />
        </mxCell>
        <mxCell id="qor_EslFs9NajbH0scnT-44" value="&lt;font color=&quot;#000000&quot;&gt;Professor A, Assistant B&lt;/font&gt;" style="text;html=1;strokeColor=none;fillColor=none;align=left;verticalAlign=middle;whiteSpace=wrap;rounded=0;labelBackgroundColor=none;sketch=0;fontColor=#FFFFFF;" vertex="1" parent="ZGewOakEupICLlYuwEGB-2">
          <mxGeometry x="620" y="690" width="150" height="20" as="geometry" />
        </mxCell>
        <mxCell id="qor_EslFs9NajbH0scnT-45" value="&lt;font color=&quot;#000000&quot;&gt;Professor A, Assistant B&lt;/font&gt;" style="text;html=1;strokeColor=none;fillColor=none;align=left;verticalAlign=middle;whiteSpace=wrap;rounded=0;labelBackgroundColor=none;sketch=0;fontColor=#FFFFFF;" vertex="1" parent="ZGewOakEupICLlYuwEGB-2">
          <mxGeometry x="620" y="740" width="150" height="20" as="geometry" />
        </mxCell>
        <mxCell id="qor_EslFs9NajbH0scnT-46" value="&lt;font color=&quot;#000000&quot;&gt;Professor A, Assistant B, Teacher C&lt;/font&gt;" style="text;html=1;strokeColor=none;fillColor=none;align=left;verticalAlign=middle;whiteSpace=wrap;rounded=0;labelBackgroundColor=none;sketch=0;fontColor=#FFFFFF;" vertex="1" parent="ZGewOakEupICLlYuwEGB-2">
          <mxGeometry x="620" y="790" width="150" height="20" as="geometry" />
        </mxCell>
        <mxCell id="qor_EslFs9NajbH0scnT-52" value="Fall 2020" style="text;html=1;strokeColor=none;fillColor=none;align=center;verticalAlign=middle;whiteSpace=wrap;rounded=0;" vertex="1" parent="ZGewOakEupICLlYuwEGB-2">
          <mxGeometry x="860" y="640" width="70" height="20" as="geometry" />
        </mxCell>
        <mxCell id="aVEDpHDBvRRptSbl7auk-0" value="Fall 2020" style="text;html=1;strokeColor=none;fillColor=none;align=center;verticalAlign=middle;whiteSpace=wrap;rounded=0;" vertex="1" parent="ZGewOakEupICLlYuwEGB-2">
          <mxGeometry x="860" y="590" width="70" height="20" as="geometry" />
        </mxCell>
        <mxCell id="aVEDpHDBvRRptSbl7auk-2" value="Fall 2020" style="text;html=1;strokeColor=none;fillColor=none;align=center;verticalAlign=middle;whiteSpace=wrap;rounded=0;" vertex="1" parent="ZGewOakEupICLlYuwEGB-2">
          <mxGeometry x="860" y="690" width="70" height="20" as="geometry" />
        </mxCell>
        <mxCell id="aVEDpHDBvRRptSbl7auk-3" value="Fall 2020" style="text;html=1;strokeColor=none;fillColor=none;align=center;verticalAlign=middle;whiteSpace=wrap;rounded=0;" vertex="1" parent="ZGewOakEupICLlYuwEGB-2">
          <mxGeometry x="860" y="740" width="70" height="20" as="geometry" />
        </mxCell>
        <mxCell id="aVEDpHDBvRRptSbl7auk-4" value="Fall 2020" style="text;html=1;strokeColor=none;fillColor=none;align=center;verticalAlign=middle;whiteSpace=wrap;rounded=0;" vertex="1" parent="ZGewOakEupICLlYuwEGB-2">
          <mxGeometry x="860" y="790" width="70" height="20" as="geometry" />
        </mxCell>
        <mxCell id="EaielB7FgYkGF3tjr36W-0" value="" style="rounded=0;whiteSpace=wrap;html=1;labelBackgroundColor=none;sketch=0;fillColor=none;fontColor=#FFFFFF;align=left;" vertex="1" parent="ZGewOakEupICLlYuwEGB-1">
          <mxGeometry x="2120" y="450" width="610" height="40" as="geometry" />
        </mxCell>
        <mxCell id="EaielB7FgYkGF3tjr36W-1" value="&lt;font color=&quot;#000000&quot;&gt;ABC1234&lt;/font&gt;" style="text;html=1;strokeColor=none;fillColor=none;align=center;verticalAlign=middle;whiteSpace=wrap;rounded=0;labelBackgroundColor=none;sketch=0;fontColor=#FFFFFF;" vertex="1" parent="ZGewOakEupICLlYuwEGB-1">
          <mxGeometry x="2175" y="460" width="50" height="20" as="geometry" />
        </mxCell>
        <mxCell id="EaielB7FgYkGF3tjr36W-2" value="" style="rounded=0;whiteSpace=wrap;html=1;labelBackgroundColor=none;sketch=0;fillColor=none;fontColor=#FFFFFF;align=left;" vertex="1" parent="ZGewOakEupICLlYuwEGB-1">
          <mxGeometry x="2120" y="500" width="610" height="40" as="geometry" />
        </mxCell>
        <mxCell id="EaielB7FgYkGF3tjr36W-3" value="" style="rounded=0;whiteSpace=wrap;html=1;labelBackgroundColor=none;sketch=0;fillColor=none;fontColor=#FFFFFF;align=left;" vertex="1" parent="ZGewOakEupICLlYuwEGB-1">
          <mxGeometry x="2120" y="550" width="610" height="40" as="geometry" />
        </mxCell>
        <mxCell id="EaielB7FgYkGF3tjr36W-4" value="" style="rounded=0;whiteSpace=wrap;html=1;labelBackgroundColor=none;sketch=0;fillColor=none;fontColor=#FFFFFF;align=left;" vertex="1" parent="ZGewOakEupICLlYuwEGB-1">
          <mxGeometry x="2120" y="600" width="610" height="40" as="geometry" />
        </mxCell>
        <mxCell id="EaielB7FgYkGF3tjr36W-5" value="" style="rounded=0;whiteSpace=wrap;html=1;labelBackgroundColor=none;sketch=0;fillColor=none;fontColor=#FFFFFF;align=left;" vertex="1" parent="ZGewOakEupICLlYuwEGB-1">
          <mxGeometry x="2120" y="650" width="610" height="40" as="geometry" />
        </mxCell>
        <mxCell id="EaielB7FgYkGF3tjr36W-6" value="&lt;font color=&quot;#000000&quot;&gt;ABC1234&lt;/font&gt;" style="text;html=1;strokeColor=none;fillColor=none;align=center;verticalAlign=middle;whiteSpace=wrap;rounded=0;labelBackgroundColor=none;sketch=0;fontColor=#FFFFFF;" vertex="1" parent="ZGewOakEupICLlYuwEGB-1">
          <mxGeometry x="2175" y="510" width="50" height="20" as="geometry" />
        </mxCell>
        <mxCell id="EaielB7FgYkGF3tjr36W-7" value="&lt;font color=&quot;#000000&quot;&gt;ABC1234&lt;/font&gt;" style="text;html=1;strokeColor=none;fillColor=none;align=center;verticalAlign=middle;whiteSpace=wrap;rounded=0;labelBackgroundColor=none;sketch=0;fontColor=#FFFFFF;" vertex="1" parent="ZGewOakEupICLlYuwEGB-1">
          <mxGeometry x="2175" y="560" width="50" height="20" as="geometry" />
        </mxCell>
        <mxCell id="EaielB7FgYkGF3tjr36W-8" value="&lt;font color=&quot;#000000&quot;&gt;ABC1234&lt;/font&gt;" style="text;html=1;strokeColor=none;fillColor=none;align=center;verticalAlign=middle;whiteSpace=wrap;rounded=0;labelBackgroundColor=none;sketch=0;fontColor=#FFFFFF;" vertex="1" parent="ZGewOakEupICLlYuwEGB-1">
          <mxGeometry x="2175" y="610" width="50" height="20" as="geometry" />
        </mxCell>
        <mxCell id="EaielB7FgYkGF3tjr36W-9" value="&lt;font color=&quot;#000000&quot;&gt;ABC1234&lt;/font&gt;" style="text;html=1;strokeColor=none;fillColor=none;align=center;verticalAlign=middle;whiteSpace=wrap;rounded=0;labelBackgroundColor=none;sketch=0;fontColor=#FFFFFF;" vertex="1" parent="ZGewOakEupICLlYuwEGB-1">
          <mxGeometry x="2175" y="660" width="50" height="20" as="geometry" />
        </mxCell>
        <mxCell id="EaielB7FgYkGF3tjr36W-10" value="&lt;font color=&quot;#000000&quot;&gt;Python I&lt;/font&gt;" style="text;html=1;strokeColor=none;fillColor=none;align=center;verticalAlign=middle;whiteSpace=wrap;rounded=0;labelBackgroundColor=none;sketch=0;fontColor=#FFFFFF;" vertex="1" parent="ZGewOakEupICLlYuwEGB-1">
          <mxGeometry x="2275" y="460" width="50" height="20" as="geometry" />
        </mxCell>
        <mxCell id="EaielB7FgYkGF3tjr36W-11" value="&lt;font color=&quot;#000000&quot;&gt;Html I&lt;/font&gt;" style="text;html=1;strokeColor=none;fillColor=none;align=center;verticalAlign=middle;whiteSpace=wrap;rounded=0;labelBackgroundColor=none;sketch=0;fontColor=#FFFFFF;" vertex="1" parent="ZGewOakEupICLlYuwEGB-1">
          <mxGeometry x="2265" y="510" width="70" height="20" as="geometry" />
        </mxCell>
        <mxCell id="EaielB7FgYkGF3tjr36W-12" value="&lt;font color=&quot;#000000&quot;&gt;Html II&lt;/font&gt;" style="text;html=1;strokeColor=none;fillColor=none;align=center;verticalAlign=middle;whiteSpace=wrap;rounded=0;labelBackgroundColor=none;sketch=0;fontColor=#FFFFFF;" vertex="1" parent="ZGewOakEupICLlYuwEGB-1">
          <mxGeometry x="2275" y="560" width="50" height="20" as="geometry" />
        </mxCell>
        <mxCell id="EaielB7FgYkGF3tjr36W-13" value="&lt;font color=&quot;#000000&quot;&gt;Java I&lt;/font&gt;" style="text;html=1;strokeColor=none;fillColor=none;align=center;verticalAlign=middle;whiteSpace=wrap;rounded=0;labelBackgroundColor=none;sketch=0;fontColor=#FFFFFF;" vertex="1" parent="ZGewOakEupICLlYuwEGB-1">
          <mxGeometry x="2275" y="610" width="50" height="20" as="geometry" />
        </mxCell>
        <mxCell id="EaielB7FgYkGF3tjr36W-14" value="&lt;font color=&quot;#000000&quot;&gt;Java II&lt;/font&gt;" style="text;html=1;strokeColor=none;fillColor=none;align=center;verticalAlign=middle;whiteSpace=wrap;rounded=0;labelBackgroundColor=none;sketch=0;fontColor=#FFFFFF;" vertex="1" parent="ZGewOakEupICLlYuwEGB-1">
          <mxGeometry x="2275" y="660" width="50" height="20" as="geometry" />
        </mxCell>
        <mxCell id="EaielB7FgYkGF3tjr36W-15" value="&lt;font color=&quot;#000000&quot;&gt;Professor A, Assistant B&lt;/font&gt;" style="text;html=1;strokeColor=none;fillColor=none;align=left;verticalAlign=middle;whiteSpace=wrap;rounded=0;labelBackgroundColor=none;sketch=0;fontColor=#FFFFFF;" vertex="1" parent="ZGewOakEupICLlYuwEGB-1">
          <mxGeometry x="2380" y="460" width="150" height="20" as="geometry" />
        </mxCell>
        <mxCell id="EaielB7FgYkGF3tjr36W-16" value="&lt;font color=&quot;#000000&quot;&gt;Professor A, Assistant B&lt;/font&gt;" style="text;html=1;strokeColor=none;fillColor=none;align=left;verticalAlign=middle;whiteSpace=wrap;rounded=0;labelBackgroundColor=none;sketch=0;fontColor=#FFFFFF;" vertex="1" parent="ZGewOakEupICLlYuwEGB-1">
          <mxGeometry x="2380" y="510" width="150" height="20" as="geometry" />
        </mxCell>
        <mxCell id="EaielB7FgYkGF3tjr36W-17" value="&lt;font color=&quot;#000000&quot;&gt;Professor A, Assistant B&lt;/font&gt;" style="text;html=1;strokeColor=none;fillColor=none;align=left;verticalAlign=middle;whiteSpace=wrap;rounded=0;labelBackgroundColor=none;sketch=0;fontColor=#FFFFFF;" vertex="1" parent="ZGewOakEupICLlYuwEGB-1">
          <mxGeometry x="2380" y="560" width="150" height="20" as="geometry" />
        </mxCell>
        <mxCell id="EaielB7FgYkGF3tjr36W-18" value="&lt;font color=&quot;#000000&quot;&gt;Professor A, Assistant B&lt;/font&gt;" style="text;html=1;strokeColor=none;fillColor=none;align=left;verticalAlign=middle;whiteSpace=wrap;rounded=0;labelBackgroundColor=none;sketch=0;fontColor=#FFFFFF;" vertex="1" parent="ZGewOakEupICLlYuwEGB-1">
          <mxGeometry x="2380" y="610" width="150" height="20" as="geometry" />
        </mxCell>
        <mxCell id="EaielB7FgYkGF3tjr36W-19" value="&lt;font color=&quot;#000000&quot;&gt;Professor A, Assistant B, Teacher C&lt;/font&gt;" style="text;html=1;strokeColor=none;fillColor=none;align=left;verticalAlign=middle;whiteSpace=wrap;rounded=0;labelBackgroundColor=none;sketch=0;fontColor=#FFFFFF;" vertex="1" parent="ZGewOakEupICLlYuwEGB-1">
          <mxGeometry x="2380" y="660" width="150" height="20" as="geometry" />
        </mxCell>
        <mxCell id="aVEDpHDBvRRptSbl7auk-5" value="Fall 2020" style="text;html=1;strokeColor=none;fillColor=none;align=center;verticalAlign=middle;whiteSpace=wrap;rounded=0;" vertex="1" parent="ZGewOakEupICLlYuwEGB-1">
          <mxGeometry x="2620" y="510" width="70" height="20" as="geometry" />
        </mxCell>
        <mxCell id="aVEDpHDBvRRptSbl7auk-6" value="Fall 2020" style="text;html=1;strokeColor=none;fillColor=none;align=center;verticalAlign=middle;whiteSpace=wrap;rounded=0;" vertex="1" parent="ZGewOakEupICLlYuwEGB-1">
          <mxGeometry x="2620" y="460" width="70" height="20" as="geometry" />
        </mxCell>
        <mxCell id="aVEDpHDBvRRptSbl7auk-7" value="Fall 2020" style="text;html=1;strokeColor=none;fillColor=none;align=center;verticalAlign=middle;whiteSpace=wrap;rounded=0;" vertex="1" parent="ZGewOakEupICLlYuwEGB-1">
          <mxGeometry x="2620" y="560" width="70" height="20" as="geometry" />
        </mxCell>
        <mxCell id="aVEDpHDBvRRptSbl7auk-8" value="Fall 2020" style="text;html=1;strokeColor=none;fillColor=none;align=center;verticalAlign=middle;whiteSpace=wrap;rounded=0;" vertex="1" parent="ZGewOakEupICLlYuwEGB-1">
          <mxGeometry x="2620" y="610" width="70" height="20" as="geometry" />
        </mxCell>
        <mxCell id="aVEDpHDBvRRptSbl7auk-9" value="Fall 2020" style="text;html=1;strokeColor=none;fillColor=none;align=center;verticalAlign=middle;whiteSpace=wrap;rounded=0;" vertex="1" parent="ZGewOakEupICLlYuwEGB-1">
          <mxGeometry x="2620" y="660" width="70" height="20" as="geometry" />
        </mxCell>
      </root>
    </mxGraphModel>
  </diagram>
</mxfile>
